<?xml version="1.0" encoding="UTF-8"?>
<svg width="140px" height="141px" viewBox="0 0 140 141" version="1.1" xmlns="http://www.w3.org/2000/svg" xmlns:xlink="http://www.w3.org/1999/xlink">
    <title>Combined Shape</title>
    <g id="Page-1" stroke="none" stroke-width="1" fill="none" fill-rule="evenodd">
        <g id="Shield-Storm-Restoration" transform="translate(-770.000000, -1602.000000)" fill="#000000" fill-rule="nonzero">
            <path d="M855.473,1655 L840.228751,1685.19168 L860.515382,1685.19168 L825.787912,1743 L837.72548,1700.8529 L820,1700.8529 L837.534,1655 L855.473,1655 Z M826.140504,1602 C837.915349,1602 848.743318,1607.36012 855.819425,1616.51636 C858.374968,1615.84318 861.017054,1615.50406 863.694775,1615.50406 C875.291444,1615.50406 885.651067,1621.83598 890.919967,1631.88304 C901.70212,1633.61407 910,1642.97277 910,1654.12323 C910,1666.54919 899.823643,1676.66205 887.320825,1676.66205 L887.320825,1676.66205 L849.558234,1676.66205 L854.837824,1666.53907 L887.320825,1666.53907 C894.208574,1666.53907 899.818552,1660.97143 899.818552,1654.12323 C899.818552,1647.36614 894.279844,1641.80863 887.468456,1641.72764 L887.468456,1641.72764 L884.057671,1641.68715 L882.795171,1638.53384 C879.664376,1630.69359 872.165739,1625.6321 863.694775,1625.6321 C860.955965,1625.6321 858.273154,1626.1585 855.768518,1627.20622 L855.768518,1627.20622 L851.741755,1628.87652 L849.466201,1625.17657 C844.436566,1617.00732 835.716156,1612.12804 826.135413,1612.12804 C811.973019,1612.12804 800.004727,1623.1216 798.889859,1637.15712 L798.889859,1637.15712 L798.497873,1642.09713 L792.623177,1641.71752 L792.602814,1641.71752 C785.771063,1641.71752 780.181448,1647.2801 780.181448,1654.11817 C780.181448,1660.95625 785.781244,1666.53401 792.668994,1666.53401 L792.668994,1666.53401 L828.167267,1666.53401 L823.451947,1676.65699 L792.668994,1676.65699 C780.171266,1676.65699 770,1666.54413 770,1654.11817 C770,1642.80068 778.44042,1633.40149 789.390568,1631.81724 C792.92353,1614.77014 808.256791,1602 826.140504,1602 Z" id="Combined-Shape"></path>
        </g>
    </g>
</svg>