<?xml version="1.0" encoding="UTF-8"?>
<svg width="105px" height="112px" viewBox="0 0 105 112" version="1.1" xmlns="http://www.w3.org/2000/svg" xmlns:xlink="http://www.w3.org/1999/xlink">
    <title>Shape</title>
    <g id="Page-1" stroke="none" stroke-width="1" fill="none" fill-rule="evenodd">
        <g id="Shield-Storm-Restoration" transform="translate(-967.000000, -1602.000000)" fill="#000000" fill-rule="nonzero">
            <path d="M967,1658 C976.808813,1674.33016 1006.94603,1682.49524 1019.59798,1684.88845 L1020.35944,1685.0429 C1032.69505,1687.6059 1040.01737,1692.18071 1037.50973,1704.59726 C1035.23522,1716.14099 1009.93132,1719.8012 1011.35289,1699.52928 C1015.90191,1708.25747 1024.71562,1707.69436 1025.28425,1701.50016 C1025.84713,1694.39304 1011.64428,1692.11409 998.533317,1686.74317 L997.295194,1686.22761 C984.288555,1680.74648 969.922443,1672.74604 967,1658 Z M1064.47208,1678.75097 C1071.0013,1682.82144 1071.85294,1690.82204 1066.45923,1696.43649 L1066.14459,1696.7453 C1060.87595,1701.74193 1049.36118,1704.34445 1046.16186,1692.92746 C1051.55556,1696.15577 1058.22673,1694.75216 1058.08479,1690.82204 C1057.94285,1685.48831 1053.68466,1684.36542 1047.15543,1685.76903 C1040.76815,1687.03229 1033.24535,1686.19012 1027,1680.57566 C1042.18755,1683.52325 1055.246,1672.99615 1064.47208,1678.75097 Z M1060.61143,1611.55813 C1081.61463,1627.97356 1069.21006,1654.86089 1058.07413,1666.18188 C1037.77574,1686.70116 978.854003,1680.1916 968,1649.05889 C985.056291,1669.43666 1038.90342,1678.21042 1051.58992,1650.89855 C1064.27642,1623.02063 1031.99633,1611.41662 1023.67963,1626.27541 C1016.06773,1640.14361 1033.40594,1647.50225 1040.17207,1636.32278 C1043.97802,1657.12509 1021.84713,1663.91768 1008.03295,1648.49284 C989.144162,1627.26599 1023.3977,1582.40659 1060.61143,1611.55813 Z M1004.31996,1614 C988.091665,1635.45221 1000.33407,1655.78274 1014,1659.70864 C991.081088,1663.2139 976.276325,1634.33053 1004.31996,1614 Z" id="Shape"></path>
        </g>
    </g>
</svg>