<?xml version="1.0" encoding="UTF-8"?>
<svg width="140px" height="121px" viewBox="0 0 140 121" version="1.1" xmlns="http://www.w3.org/2000/svg" xmlns:xlink="http://www.w3.org/1999/xlink">
    <title>Combined Shape</title>
    <g id="Page-1" stroke="none" stroke-width="1" fill="none" fill-rule="evenodd">
        <g id="Shield-Storm-Restoration" transform="translate(-128.000000, -1602.000000)" fill="#000000" fill-rule="nonzero">
            <path d="M168.415258,1693.58262 C176.58587,1693.58262 183.208901,1700.16761 183.208901,1708.29131 C183.208901,1716.415 176.58587,1723 168.415258,1723 C160.244646,1723 153.621614,1716.415 153.621614,1708.29131 C153.621614,1700.16761 160.244646,1693.58262 168.415258,1693.58262 Z M227.589833,1686.62307 C235.765536,1686.62307 242.368205,1693.20806 242.368205,1701.33176 C242.368205,1709.45545 235.755354,1716.04045 227.589833,1716.04045 C219.419221,1716.04045 212.796189,1709.45545 212.796189,1701.33176 C212.796189,1693.20806 219.419221,1686.62307 227.589833,1686.62307 Z M198.002545,1668.90785 C206.173157,1668.90785 212.796189,1675.49285 212.796189,1683.61654 C212.796189,1691.74023 206.173157,1698.32523 198.002545,1698.32523 C189.831933,1698.32523 183.208901,1691.74023 183.208901,1683.61654 C183.208901,1675.49285 189.831933,1668.90785 198.002545,1668.90785 Z M184.140504,1602 C195.915349,1602 206.743318,1607.36012 213.819425,1616.51636 C216.374968,1615.84318 219.017054,1615.50406 221.694775,1615.50406 C233.291444,1615.50406 243.651067,1621.83598 248.919967,1631.88304 C259.70212,1633.61407 268,1642.97277 268,1654.12323 C268,1666.54919 257.823643,1676.66205 245.320825,1676.66205 L245.320825,1676.66205 L216.558234,1676.66205 C214.929203,1672.3446 211.808589,1668.80662 207.837824,1666.53907 L207.837824,1666.53907 L245.320825,1666.53907 C252.208574,1666.53907 257.818552,1660.97143 257.818552,1654.12323 C257.818552,1647.36614 252.279844,1641.80863 245.468456,1641.72764 L245.468456,1641.72764 L242.057671,1641.68715 L240.795171,1638.53384 C237.664376,1630.69359 230.165739,1625.6321 221.694775,1625.6321 C218.955965,1625.6321 216.273154,1626.1585 213.768518,1627.20622 L213.768518,1627.20622 L209.741755,1628.87652 L207.466201,1625.17657 C202.436566,1617.00732 193.716156,1612.12804 184.135413,1612.12804 C169.973019,1612.12804 158.004727,1623.1216 156.889859,1637.15712 L156.889859,1637.15712 L156.497873,1642.09713 L150.623177,1641.71752 L150.602814,1641.71752 C143.771063,1641.71752 138.181448,1647.2801 138.181448,1654.11817 C138.181448,1660.95625 143.781244,1666.53401 150.668994,1666.53401 L150.668994,1666.53401 L188.167267,1666.53401 C184.196502,1668.80156 181.09116,1672.3446 179.451947,1676.65699 L179.451947,1676.65699 L150.668994,1676.65699 C138.171266,1676.65699 128,1666.54413 128,1654.11817 C128,1642.80068 136.44042,1633.40149 147.390568,1631.81724 C150.92353,1614.77014 166.256791,1602 184.140504,1602 Z" id="Combined-Shape"></path>
        </g>
    </g>
</svg>