<?xml version="1.0" encoding="UTF-8"?>
<svg width="140px" height="126px" viewBox="0 0 140 126" version="1.1" xmlns="http://www.w3.org/2000/svg" xmlns:xlink="http://www.w3.org/1999/xlink">
    <title>Shape</title>
    <g id="Page-1" stroke="none" stroke-width="1" fill="none" fill-rule="evenodd">
        <g id="Shield-Storm-Restoration" transform="translate(-556.000000, -1602.000000)" fill="#000000" fill-rule="nonzero">
            <path d="M612.140504,1602 C623.915349,1602 634.743318,1607.36012 641.819425,1616.51636 C644.374968,1615.84318 647.017054,1615.50406 649.694775,1615.50406 C661.291444,1615.50406 671.651067,1621.83598 676.919967,1631.88304 C687.70212,1633.61407 696,1642.97277 696,1654.12323 C696,1666.42493 686.026152,1676.45956 673.695203,1676.65903 L673.320825,1676.66205 L644.558234,1676.66205 C644.478513,1676.45076 644.395219,1676.24134 644.308429,1676.03385 C643.165573,1678.10059 642.384397,1680.32174 642.06124,1682.73456 C640.632967,1693.40458 655.348933,1701.17562 653.939294,1711.70284 C652.911998,1719.37173 645.005876,1725.15775 640.786311,1727.73608 L640.348803,1728 L634.86211,1728 L635.172308,1727.66745 C637.274562,1725.36369 641.839779,1719.34788 640.163398,1712.02391 C637.700954,1701.26522 619.407318,1697.93878 606.13919,1681.09374 C604.993304,1679.63887 604.021666,1678.15347 603.200127,1676.65676 L578.668994,1676.65699 C566.171266,1676.65699 556,1666.54413 556,1654.11817 C556,1642.80068 564.44042,1633.40149 575.390568,1631.81724 C578.92353,1614.77014 594.256791,1602 612.140504,1602 Z M612.135413,1612.12804 C598.114643,1612.12804 586.244312,1622.90283 584.926552,1636.73697 L584.889859,1637.15712 L584.497873,1642.09713 L578.602814,1641.71752 C571.771063,1641.71752 566.181448,1647.2801 566.181448,1654.11817 C566.181448,1660.85418 571.615334,1666.36723 578.361462,1666.53029 L578.668994,1666.53401 L599.647036,1666.53482 C598.651661,1661.1002 598.997635,1656.11904 599.411492,1652.60521 C599.718017,1653.03548 600.086032,1653.45735 600.529514,1653.86523 C603.822089,1656.8958 611.138612,1659.4149 619.736202,1660.57039 C620.638306,1660.69149 621.55456,1660.79789 622.48182,1660.88802 L623.412632,1660.97266 C627.44776,1661.31613 640.993529,1662.03481 645.884876,1656.8762 C646.064691,1656.68673 646.150406,1656.50286 646.19699,1656.15846 C646.473701,1654.0883 639.640723,1651.46279 630.935057,1650.29238 L630.135663,1650.18972 C621.787897,1649.16814 614.938798,1649.91553 614.669699,1651.922 C614.392988,1653.99216 621.225967,1656.6186 629.931632,1657.78808 C632.457431,1658.12782 634.860246,1658.30609 637.009644,1658.33969 C633.343463,1658.99676 628.703671,1659.15263 623.603627,1658.71863 C614.072489,1657.90848 605.414339,1655.28858 602.05841,1652.1992 C600.281686,1650.56398 599.88572,1649.25636 601.962446,1647.68461 C606.646027,1644.13976 618.439297,1643.06547 631.665498,1644.84257 L632.677281,1644.9841 C649.12554,1647.37595 661.710255,1653.66381 660.968858,1659.20677 C660.799912,1660.4673 659.956162,1661.58298 658.560047,1662.53021 L657.890747,1662.96917 C656.14832,1664.1178 654.47066,1665.3026 652.900057,1666.53931 L673.320825,1666.53931 C680.208574,1666.53931 685.818552,1660.97143 685.818552,1654.12323 C685.818552,1647.46852 680.446412,1641.97731 673.777173,1641.73508 L673.468456,1641.72764 L670.057671,1641.68715 L668.795171,1638.53384 C665.664376,1630.69359 658.165739,1625.6321 649.694775,1625.6321 C647.138553,1625.6321 644.631111,1626.09065 642.271784,1627.00363 L641.768518,1627.20622 L637.741755,1628.87652 L635.466201,1625.17657 C630.436566,1617.00732 621.716156,1612.12804 612.135413,1612.12804 Z" id="Shape"></path>
        </g>
    </g>
</svg>