<?xml version="1.0" encoding="UTF-8"?>
<svg width="140px" height="130px" viewBox="0 0 140 130" version="1.1" xmlns="http://www.w3.org/2000/svg" xmlns:xlink="http://www.w3.org/1999/xlink">
    <title>Shape</title>
    <g id="Page-1" stroke="none" stroke-width="1" fill="none" fill-rule="evenodd">
        <g id="Shield-Storm-Restoration" transform="translate(-342.000000, -1602.000000)" fill="#000000" fill-rule="nonzero">
            <path d="M383.345667,1713.04789 L385.333333,1709.16648 L387.609371,1713.61614 C388.947237,1716.27353 392.033333,1722.68793 392.033333,1725.27701 C392.033333,1728.99001 389.033641,1732 385.333333,1732 C381.633026,1732 378.633333,1728.99001 378.633333,1725.27701 C378.633333,1722.82788 381.394815,1716.9558 382.825784,1714.0788 L383.345667,1713.04789 Z M385.333333,1719.22632 C384.349398,1721.14588 383.599549,1723.17742 383.1,1725.27701 C383.1,1726.51468 384.099897,1727.51801 385.333333,1727.51801 C385.92565,1727.51801 386.493707,1727.2819 386.912538,1726.86163 C387.33137,1726.44136 387.566667,1725.87136 387.566667,1725.27701 C387.066785,1723.17752 386.316951,1721.14603 385.333333,1719.22632 Z M434.423963,1706.89315 L436.7,1702.44349 L438.976037,1706.89315 C440.313903,1709.55054 443.4,1715.96494 443.4,1718.55402 C443.4,1722.26702 440.400308,1725.27701 436.7,1725.27701 C432.999692,1725.27701 430,1722.26702 430,1718.55402 C430,1715.96494 433.086097,1709.55054 434.423963,1706.89315 L434.423963,1706.89315 Z M436.7,1712.50333 C435.716065,1714.42289 434.966216,1716.45443 434.466667,1718.55402 C434.466667,1719.79169 435.466564,1720.79502 436.7,1720.79502 C437.292317,1720.79502 437.860374,1720.55891 438.279205,1720.13864 C438.698036,1719.71837 438.933333,1719.14837 438.933333,1718.55402 C438.433452,1716.45453 437.683617,1714.42303 436.7,1712.50333 Z M398.690629,1695.68817 L400.966667,1691.23851 L403.138155,1695.48108 C404.4115,1697.99604 407.666667,1704.68998 407.666667,1707.34903 C407.666667,1711.06204 404.666974,1714.07202 400.966667,1714.07202 C397.266359,1714.07202 394.266667,1711.06204 394.266667,1707.34903 C394.266667,1704.75995 397.352763,1698.34555 398.690629,1695.68817 L398.690629,1695.68817 Z M452.290629,1693.44717 L454.566667,1688.99751 L456.738155,1693.24009 C458.0115,1695.75504 461.266667,1702.44898 461.266667,1705.10804 C461.266667,1708.82104 458.266974,1711.83103 454.566667,1711.83103 C450.866359,1711.83103 447.866667,1708.82104 447.866667,1705.10804 C447.866667,1702.51896 450.952763,1696.10456 452.290629,1693.44717 L452.290629,1693.44717 Z M400.966667,1701.29834 C399.982731,1703.21791 399.232883,1705.24945 398.733333,1707.34903 C398.733333,1708.5867 399.733231,1709.59003 400.966667,1709.59003 C402.200103,1709.59003 403.2,1708.5867 403.2,1707.34903 C402.700118,1705.24955 401.950284,1703.21805 400.966667,1701.29834 Z M367.712333,1688.39692 L369.7,1684.51552 L371.976037,1688.96517 C373.313903,1691.62256 376.4,1698.03696 376.4,1700.62604 C376.4,1704.33905 373.400308,1707.34903 369.7,1707.34903 C365.999692,1707.34903 363,1704.33905 363,1700.62604 C363,1698.10694 365.921535,1691.96649 367.311752,1689.18872 L367.712333,1688.39692 Z M454.566667,1699.05734 C453.582731,1700.97691 452.832883,1703.00845 452.333333,1705.10804 C452.333333,1706.3457 453.333231,1707.34903 454.566667,1707.34903 C455.158983,1707.34903 455.727041,1707.11293 456.145872,1706.69266 C456.564703,1706.27239 456.8,1705.70239 456.8,1705.10804 C456.300118,1703.00855 455.550284,1700.97705 454.566667,1699.05734 Z M421.312333,1686.15593 L423.3,1682.27452 L425.576037,1686.72418 C426.913903,1689.38157 430,1695.79597 430,1698.38505 C430,1702.09805 427.000308,1705.10804 423.3,1705.10804 C419.599692,1705.10804 416.6,1702.09805 416.6,1698.38505 C416.6,1695.79597 419.686097,1689.38157 421.023963,1686.72418 L421.312333,1686.15593 Z M369.7,1694.57535 C368.716065,1696.49492 367.966216,1698.52646 367.466667,1700.62604 C367.466667,1701.86371 368.466564,1702.86704 369.7,1702.86704 C370.933436,1702.86704 371.933333,1701.86371 371.933333,1700.62604 C371.433452,1698.52656 370.683617,1696.49506 369.7,1694.57535 Z M423.3,1692.33435 C422.316065,1694.25392 421.566216,1696.28546 421.066667,1698.38505 C421.066667,1699.62271 422.066564,1700.62604 423.3,1700.62604 C424.533436,1700.62604 425.533333,1699.62271 425.533333,1698.38505 C425.033452,1696.28556 424.283617,1694.25406 423.3,1692.33435 Z M398.140504,1602 C409.915349,1602 420.743318,1607.37851 427.819425,1616.56617 C430.374968,1615.89068 433.017054,1615.5504 435.694775,1615.5504 C447.291444,1615.5504 457.651067,1621.90405 462.919967,1631.98558 C473.70212,1633.72255 482,1643.11337 482,1654.30209 C482,1666.64601 472.026152,1676.71507 459.695203,1676.91522 L426,1677.25736 L364.668994,1676.91317 C352.171266,1676.91317 342,1666.76561 342,1654.29701 C342,1642.94068 350.44042,1633.50924 361.390568,1631.91956 C364.92353,1614.81396 380.256791,1602 398.140504,1602 Z M398.135413,1612.1628 C384.114643,1612.1628 372.244312,1622.97456 370.926552,1636.85617 L370.889859,1637.27776 L370.497873,1642.23472 L364.602814,1641.85381 C357.771063,1641.85381 352.181448,1647.43547 352.181448,1654.29701 C352.181448,1661.05614 357.615334,1666.5881 364.361462,1666.75173 L364.668994,1666.75546 L422,1667.22305 L459.320825,1666.76053 C466.208574,1666.76053 471.818552,1661.17379 471.818552,1654.30209 C471.818552,1647.62455 466.446412,1642.11449 459.777173,1641.87143 L459.468456,1641.86397 L456.057671,1641.82334 L454.795171,1638.65921 C451.664376,1630.79205 444.165739,1625.71319 435.694775,1625.71319 C433.138553,1625.71319 430.631111,1626.17332 428.271784,1627.08943 L427.768518,1627.29272 L423.741755,1628.96874 L421.466201,1625.2561 C416.436566,1617.05882 407.716156,1612.1628 398.135413,1612.1628 Z" id="Shape"></path>
        </g>
    </g>
</svg>