<?xml version="1.0" encoding="UTF-8"?>
<svg width="25px" height="25px" viewBox="0 0 25 25" version="1.1" xmlns="http://www.w3.org/2000/svg" xmlns:xlink="http://www.w3.org/1999/xlink">
    <title>Shape</title>
    <g id="Page-1" stroke="none" stroke-width="1" fill="none" fill-rule="evenodd">
        <g id="Shield-Storm-Restoration" transform="translate(-15.000000, -543.000000)" fill="#FFFFFF" fill-rule="nonzero">
            <path d="M18.6598301,546.662513 C23.5406369,541.780196 31.4552305,541.779024 36.3375022,546.659828 C38.6818852,549.003476 39.9993158,552.182378 40,555.497314 C40.0007318,558.812788 38.6842289,561.992715 36.3401877,564.337487 C31.4593809,569.219804 23.5448362,569.220976 18.6625157,564.340172 C13.7801952,559.459369 13.7790233,551.54483 18.6598301,546.662513 Z M22.9751316,548.625488 C22.7895415,548.439145 22.5019982,548.419029 22.2943742,548.564755 L22.2206166,548.627175 L21.4728462,549.381178 C20.5653704,550.281275 20.2401008,551.621045 20.63262,552.842024 C20.9750219,553.881365 21.45852,554.867838 22.0693788,555.773395 C22.6278558,556.614965 23.2681548,557.398306 23.9808727,558.111701 C24.7554739,558.897524 25.6134726,559.594985 26.5393117,560.191624 C27.5358465,560.851606 28.630745,561.346431 29.7825053,561.657285 C30.8542498,561.915296 31.9783504,561.626491 32.7951565,560.89456 L32.9543139,560.742296 L33.5928898,560.102667 L33.5945637,560.105199 C33.7793661,559.918018 33.7993162,559.628112 33.6547598,559.418801 L33.5928406,559.344445 L31.2276334,556.955306 C31.0405555,556.767463 30.7528468,556.74718 30.5452044,556.892888 L30.4714446,556.955306 L29.1313263,558.32779 C28.7409241,558.718766 28.1290806,558.772279 27.6777796,558.454872 C26.8967291,557.904151 26.1656973,557.284677 25.4932504,556.603697 C24.8901209,555.997675 24.3352377,555.344742 23.8338195,554.650855 C23.5290263,554.230431 23.5482002,553.660907 23.8658237,553.263734 L23.9514325,553.168217 L25.3377788,551.770317 C25.524069,551.58168 25.5441845,551.291573 25.399681,551.0822 L25.3377788,551.007826 L22.9751316,548.625488 L22.9751316,548.625488 Z" id="Shape"></path>
        </g>
    </g>
</svg>