<?xml version="1.0" encoding="UTF-8"?>
<svg width="18px" height="25px" viewBox="0 0 18 25" version="1.1" xmlns="http://www.w3.org/2000/svg" xmlns:xlink="http://www.w3.org/1999/xlink">
    <title>Shape</title>
    <g id="Page-1" stroke="none" stroke-width="1" fill="none" fill-rule="evenodd">
        <g id="Shield-Storm-Restoration" transform="translate(-19.000000, -591.000000)" fill="#FFFFFF" fill-rule="nonzero">
            <path d="M28,591 C32.9625783,591 37,595.061626 37,600.054015 C37,606.249726 28.9458817,615.345391 28.6029704,615.729571 C28.3082561,616.059804 27.8111703,616.087857 27.4822787,615.812263 L27.3970296,615.729571 C27.0541183,615.345391 19,606.249726 19,600.054015 C19,595.061626 23.0373732,591 28,591 Z M28,595.498736 C25.5032277,595.498736 23.4719216,597.542195 23.4719216,600.054015 C23.4719216,602.565834 25.5031791,604.609343 28,604.609343 C30.4967723,604.609343 32.5280299,602.565883 32.5280299,600.054064 C32.5280299,597.542244 30.4967723,595.498736 28,595.498736 Z" id="Shape"></path>
        </g>
    </g>
</svg>