<?xml version="1.0" encoding="UTF-8"?>
<svg width="123px" height="36px" viewBox="0 0 123 36" version="1.1" xmlns="http://www.w3.org/2000/svg" xmlns:xlink="http://www.w3.org/1999/xlink">
    <title>Shape</title>
    <g id="Page-1" stroke="none" stroke-width="1" fill="none" fill-rule="evenodd">
        <g id="shieldSVG" transform="translate(-62.000000, -9.000000)" fill="#010101">
            <path d="M66,36.68 C66.3362163,36.6824012 66.6713009,36.7192605 67,36.79 C67.3036433,36.8599714 67.5963358,36.9709927 67.87,37.12 C67.87,37.87 67.79,38.44 67.75,38.82 L67.52,38.82 C67.3671451,38.821936 67.2150441,38.7982758 67.07,38.75 C66.9408512,38.7148653 66.8234574,38.6458101 66.73,38.55 L66.64,37.55 C66.4560929,37.5038899 66.2683678,37.4753526 66.0793522,37.4646913 L65.89,37.46 C65.5508911,37.4308835 65.2137628,37.5348912 64.95,37.75 C64.7515844,37.9443087 64.6429079,38.2123774 64.65,38.49 C64.6433937,38.6996278 64.7028645,38.9060266 64.82,39.08 C64.931081,39.239054 65.0784918,39.3693241 65.25,39.46 C65.4051167,39.5454913 65.5636976,39.6244573 65.7253254,39.696701 L66.2,39.9 C66.5798769,40.056531 66.9447157,40.2473183 67.29,40.47 C67.5668481,40.6436221 67.802355,40.8757159 67.98,41.15 C68.1553715,41.4533299 68.241996,41.7998282 68.23,42.15 C68.2467229,42.6052557 68.1170425,43.0538796 67.86,43.43 C67.6061751,43.7807793 67.2600025,44.0542556 66.86,44.22 C66.3943088,44.3987709 65.8987765,44.4870163 65.4,44.48 L65.31,44.46 C64.8930102,44.4551539 64.4775732,44.4082497 64.07,44.32 C63.6875451,44.2576681 63.3207881,44.1218322 62.99,43.92 C63.07,43.38 63.18,42.78 63.31,42.1 L63.48,42.1 C63.6497385,42.1014052 63.8182967,42.1283746 63.98,42.18 C64.1067821,42.2139258 64.2212593,42.2833059 64.31,42.38 L64.31,43.48 C64.4779564,43.5494552 64.6520504,43.6030226 64.83,43.64 C65.029718,43.6550212 65.230282,43.6550212 65.43,43.64 C65.7641743,43.6530845 66.0937079,43.5584312 66.37,43.37 C66.6200021,43.1727612 66.7611189,42.8682461 66.75,42.55 C66.758024,42.3107597 66.6799634,42.0765779 66.53,41.89 C66.381778,41.7121054 66.2021282,41.5629621 66,41.45 C65.8857143,41.3871429 65.7289796,41.3079592 65.52793,41.2105831 L65,40.96 C64.6894832,40.8243532 64.3887599,40.6673089 64.1,40.49 C63.8618326,40.3231179 63.6609229,40.1085872 63.51,39.86 C63.3315069,39.5579422 63.244651,39.2105183 63.26,38.86 C63.2514592,38.4427596 63.3662546,38.032279 63.59,37.68 C63.8198766,37.3308894 64.1465338,37.0563584 64.53,36.89 C64.9985422,36.7125461 65.5005124,36.6408361 66,36.68 Z M80,36.68 C80.6339757,36.6655564 81.2598474,36.8246177 81.81,37.14 C82.3315849,37.4428542 82.7497735,37.8958919 83.01,38.44 C83.3070543,39.0641086 83.4542955,39.7489512 83.44,40.44 C83.4559412,41.190856 83.2730973,41.9325814 82.91,42.59 C82.5851006,43.1796579 82.0996579,43.6651006 81.51,43.99 C80.9171219,44.3196994 80.2483301,44.4886211 79.57,44.48 L79.59,44.46 C78.9621853,44.4759387 78.342345,44.3166502 77.8,44 C77.276311,43.6922064 76.8553285,43.2364319 76.59,42.69 C75.987235,41.375401 76.0204035,39.8570231 76.68,38.57 C77.0084852,37.9796385 77.4973155,37.494275 78.09,37.17 C78.6733353,36.8436311 79.331592,36.6747589 80,36.68 Z M137.41,36.68 C138.040833,36.6653431 138.663545,36.8244806 139.21,37.14 C139.735294,37.4412804 140.157115,37.8944768 140.42,38.44 C140.717054,39.0641086 140.864296,39.7489512 140.85,40.44 C140.865941,41.190856 140.683097,41.9325814 140.32,42.59 C139.995101,43.1796579 139.509658,43.6651006 138.92,43.99 C138.326779,44.3188338 137.658221,44.4876964 136.98,44.48 L136.98,44.46 C136.349167,44.4746569 135.726455,44.3155194 135.18,44 C134.661505,43.6888468 134.244602,43.2337273 133.98,42.69 C133.377235,41.375401 133.410403,39.8570231 134.07,38.57 C134.397502,37.9823031 134.882303,37.4975022 135.47,37.17 C136.063221,36.8411662 136.731779,36.6723036 137.41,36.68 Z M171.84,36.66 C172.470833,36.6453431 173.093545,36.8044806 173.64,37.12 C174.161118,37.4265113 174.581599,37.8782675 174.85,38.42 C175.106907,38.9668225 175.249124,39.559479 175.268996,40.1615161 L175.27,40.42 C175.289475,41.170002 175.110065,41.9117939 174.75,42.57 C174.418509,43.1580779 173.930422,43.6427032 173.34,43.97 C172.750767,44.2997527 172.085171,44.4687381 171.41,44.46 C170.779167,44.4746569 170.156455,44.3155194 169.61,44 C169.086311,43.6922064 168.665328,43.2364319 168.4,42.69 C168.100808,42.0666207 167.953456,41.3812624 167.97,40.69 C167.954877,39.942412 168.137725,39.2041204 168.5,38.55 C168.821735,37.9579711 169.307971,37.4717351 169.9,37.15 C170.492878,36.8203006 171.16167,36.6513789 171.84,36.66 Z M123.35,36.58 C123.686208,36.582541 124.021279,36.6193987 124.35,36.69 C124.653643,36.7599714 124.946336,36.8709927 125.22,37.02 C125.22,37.77 125.14,38.34 125.1,38.72 L124.87,38.72 C124.717091,38.7227123 124.56486,38.6990319 124.42,38.65 C124.289838,38.6173046 124.171818,38.5478811 124.08,38.45 L123.99,37.45 C123.806093,37.4038899 123.618368,37.3753526 123.429352,37.3646913 L123.24,37.36 C122.897986,37.3324254 122.558306,37.4361173 122.29,37.65 C122.09525,37.8460087 121.990281,38.1138616 122,38.39 C121.993394,38.5996278 122.052865,38.8060266 122.17,38.98 C122.281081,39.139054 122.428492,39.2693241 122.6,39.36 C122.755117,39.4454913 122.913698,39.5244573 123.075325,39.596701 L123.55,39.8 C123.929877,39.956531 124.294716,40.1473183 124.64,40.37 C124.913833,40.5440048 125.145995,40.7761672 125.32,41.05 C125.472566,41.3004411 125.560796,41.5837277 125.578147,41.8746975 L125.58,42.05 C125.596723,42.5052557 125.467043,42.9538796 125.21,43.33 C124.956175,43.6807793 124.610003,43.9542556 124.21,44.12 C123.744309,44.2987709 123.248777,44.3870163 122.75,44.38 L122.7,44.46 C122.28301,44.4551539 121.867573,44.4082497 121.46,44.32 C121.077545,44.2576681 120.710788,44.1218322 120.38,43.92 C120.46,43.38 120.57,42.78 120.7,42.1 L120.87,42.1 C121.039739,42.1014052 121.208297,42.1283746 121.37,42.18 C121.495752,42.2163088 121.609623,42.2853219 121.7,42.38 L121.7,43.48 C121.867956,43.5494552 122.04205,43.6030226 122.22,43.64 C122.419718,43.6550212 122.620282,43.6550212 122.82,43.64 C123.154174,43.6530845 123.483708,43.5584312 123.76,43.37 C124.010002,43.1727612 124.151119,42.8682461 124.14,42.55 C124.148024,42.3107597 124.069963,42.0765779 123.92,41.89 C123.771778,41.7121054 123.592128,41.5629621 123.39,41.45 C123.275714,41.3871429 123.11898,41.3079592 122.91793,41.2105831 L122.39,40.96 C122.079483,40.8243532 121.77876,40.6673089 121.49,40.49 C121.251833,40.3231179 121.050923,40.1085872 120.9,39.86 C120.747493,39.6098442 120.661516,39.3259151 120.648791,39.0351001 L120.65,38.86 C120.615204,37.9938215 121.12126,37.1968833 121.92,36.86 C122.370639,36.6638066 122.858645,36.568253 123.35,36.58 Z M89.67,37.38 C90.1212747,37.7308557 90.3881793,38.2640187 90.4031383,38.8295271 L90.4,39 C90.4064949,39.4511505 90.2851505,39.8949244 90.05,40.28 C89.8095918,40.6597205 89.4614288,40.9591406 89.05,41.14 L89.26,41.48 L89.6637037,42.1159259 C89.9088889,42.4966667 90.1066667,42.79 90.26,42.99 L90.4164062,43.1901563 C90.5575,43.365 90.655,43.4625 90.73,43.47 L91.2684316,43.4699442 L91.306352,43.5509878 C91.3557527,43.6747516 91.3841339,43.8062381 91.39,43.94 C91.267992,44.1079506 91.0967402,44.2337682 90.9,44.3 C90.6662681,44.4003402 90.4143556,44.4514036 90.16,44.45 C89.8864939,44.4602082 89.6168291,44.3831611 89.39,44.23 C89.1830002,44.0672722 89.0025477,43.8739471 88.8546886,43.6570156 L88.57608,43.20808 C88.3284,42.7924 88.018,42.218 87.65,41.49 L86.61,41.49 L86.61,43.56 L87.46,43.66 C87.4753856,43.7861995 87.4753856,43.9138005 87.46,44.04 C87.4511774,44.1558429 87.4276552,44.2700932 87.39,44.38 L84.29,44.38 C84.2732422,44.2037307 84.2732422,44.0262693 84.29,43.85 C84.3729294,43.756041 84.4802112,43.6868269 84.6,43.65 C84.774243,43.5908279 84.9561226,43.5571465 85.14,43.55 L85.14,37.63 L84.3,37.53 L84.3,37.15 C84.3088226,37.0341571 84.3323448,36.9199068 84.37,36.81 L87.37,36.81 C88.1771104,36.7581833 88.9804917,36.9572821 89.67,37.38 Z M111.2,37.38 C111.718828,37.7483909 112.0161,38.3542221 111.99,38.99 C111.996495,39.4411505 111.87515,39.8849244 111.64,40.27 C111.399592,40.6497205 111.051429,40.9491406 110.64,41.13 L110.85,41.47 L111.253704,42.1059259 C111.498889,42.4866667 111.696667,42.78 111.85,42.98 L112.006406,43.1801563 C112.1475,43.355 112.245,43.4525 112.32,43.46 L112.794273,43.4595736 L112.839027,43.5500784 C112.890257,43.6733986 112.91788,43.8056764 112.92,43.94 C112.80062,44.1063027 112.633077,44.2319603 112.44,44.3 C112.20251,44.3995325 111.947503,44.45059 111.69,44.45 C111.416744,44.4581711 111.147693,44.3812992 110.92,44.23 C110.66125,44.0265902 110.443981,43.7753723 110.28,43.49 C109.880956,42.8434252 109.517093,42.1757879 109.19,41.49 L108.14,41.49 L108.14,43.56 L108.99,43.66 C109.000044,43.7864676 109.000044,43.9135324 108.99,44.04 C108.976321,44.1551086 108.952904,44.2688496 108.92,44.38 L105.82,44.38 C105.804364,44.2036793 105.804364,44.0263207 105.82,43.85 C105.907294,43.7564394 106.017648,43.6874683 106.14,43.65 C106.310562,43.5899392 106.489279,43.5562189 106.67,43.55 L106.67,37.63 L105.83,37.53 L105.83,37.15 C105.838823,37.0341571 105.862345,36.9199068 105.9,36.81 L108.9,36.81 C109.707229,36.7568572 110.511006,36.9560543 111.2,37.38 Z M147.06,37.38 C147.522871,37.7846486 147.761334,38.3882578 147.7,39 C147.706495,39.4511505 147.58515,39.8949244 147.35,40.28 C147.107328,40.6577586 146.759828,40.9566089 146.35,41.14 L146.56,41.48 L146.963704,42.1159259 C147.208889,42.4966667 147.406667,42.79 147.56,42.99 L147.716406,43.1901563 C147.8575,43.365 147.955,43.4625 148.03,43.47 L148.58,43.47 L148.64,43.43 C148.72433,43.5873467 148.772179,43.7616508 148.78,43.94 C148.657992,44.1079506 148.48674,44.2337682 148.29,44.3 C148.056268,44.4003402 147.804356,44.4514036 147.55,44.45 C147.276494,44.4602082 147.006829,44.3831611 146.78,44.23 C146.573,44.0672722 146.392548,43.8739471 146.244689,43.6570156 L145.96608,43.20808 C145.7184,42.7924 145.408,42.218 145.04,41.49 L144,41.49 L144,43.56 L144.85,43.66 C144.860436,43.7864517 144.860436,43.9135483 144.85,44.04 C144.841177,44.1558429 144.817655,44.2700932 144.78,44.38 L141.68,44.38 C141.663242,44.2037307 141.663242,44.0262693 141.68,43.85 C141.762929,43.756041 141.870211,43.6868269 141.99,43.65 C142.164243,43.5908279 142.346123,43.5571465 142.53,43.55 L142.53,37.63 L141.69,37.53 C141.679426,37.403554 141.679426,37.276446 141.69,37.15 C141.698823,37.0341571 141.722345,36.9199068 141.76,36.81 L144.76,36.81 C145.56711,36.7581833 146.370492,36.9572821 147.06,37.38 Z M178.54,36.81 L181.74,41.81 C181.868179,42.0160696 181.969024,42.2379288 182.04,42.47 L182.09,42.47 L182.09,37.63 L181.25,37.53 L181.25,37.15 C181.258823,37.0341571 181.282345,36.9199068 181.32,36.81 L183.77,36.81 C183.79144,36.9826703 183.79144,37.1573297 183.77,37.33 C183.77,37.41 183.63,37.47 183.46,37.53 C183.28304,37.5933921 183.09773,37.6304541 182.91,37.64 L182.91,44.19 C182.559333,44.3518097 182.176056,44.4305183 181.79,44.42 L181.53,44.42 L178.05,38.9 C177.913697,38.6983794 177.812282,38.4752663 177.75,38.24 L177.69,38.24 L177.69,43.52 L178.53,43.62 C178.540044,43.7464676 178.540044,43.8735324 178.53,44 C178.516321,44.1151086 178.492904,44.2288496 178.46,44.34 L176,44.34 C175.983242,44.1637307 175.983242,43.9862693 176,43.81 C176.085302,43.7140513 176.196375,43.6446308 176.32,43.61 C176.494243,43.5508279 176.676123,43.5171465 176.86,43.51 L176.86,37.63 L176.01,37.53 C175.99942,37.4002153 175.99942,37.2697847 176.01,37.14 C176.017659,37.0262438 176.044716,36.9146351 176.09,36.81 L178.54,36.81 Z M163.24,36.84 C163.23,37.65 163.2,38.37 163.15,39.01 C163.043582,39.0203051 162.936418,39.0203051 162.83,39.01 C162.614308,39.0225543 162.401579,38.9648898 162.222884,38.8475098 L162.12,38.77 L162.01,37.58 L160.66,37.58 L160.66,43.52 L161.5,43.62 L161.5,44 C161.494118,44.0772286 161.481703,44.1537494 161.462923,44.2287473 L161.43,44.34 L158.33,44.34 L158.14,44.4 C158.123242,44.2237307 158.123242,44.0462693 158.14,43.87 C158.225302,43.7740513 158.336375,43.7046308 158.46,43.67 C158.576015,43.6299911 158.695578,43.6016749 158.816906,43.5853816 L159,43.57 L159,37.64 L157.73,37.64 L157.59,39.04 C157.483562,39.0498863 157.376438,39.0498863 157.27,39.04 C157.057135,39.0503772 156.847698,38.9924635 156.671495,38.8764781 L156.57,38.8 L156.57,36.84 L163.24,36.84 Z M95,36.81 L96.56,41.58 C96.6197273,41.7376431 96.6693993,41.8988252 96.7087494,42.0625738 L96.76,42.31 L98.57,36.81 L101.32,36.81 C101.335051,36.9830066 101.335051,37.1569934 101.32,37.33 C101.227476,37.432073 101.104913,37.5021088 100.97,37.53 C100.775601,37.5924686 100.573916,37.629444 100.37,37.64 L100.84,43.52 L101.79,43.62 C101.80058,43.7497847 101.80058,43.8802153 101.79,44.01 C101.782341,44.1237562 101.755284,44.2353649 101.71,44.34 L98.59,44.34 C98.5682434,44.1640032 98.5682434,43.9859968 98.59,43.81 C98.6753018,43.7140513 98.7863745,43.6446308 98.91,43.61 C99.0909485,43.5501546 99.2795221,43.5164807 99.47,43.51 L99.13,38.78 L99.13,38.1 L99,38.1 L97.14,44 C96.8216062,44.12468 96.4818856,44.1858297 96.14,44.18 L95.84,44.18 L94.12,38.85 C94.0387705,38.6158118 93.9785332,38.3748623 93.94,38.13 L93.87,38.13 L93.52,43.55 L94.4,43.65 C94.41058,43.7797847 94.41058,43.9102153 94.4,44.04 C94.3891752,44.1543525 94.3587299,44.2659852 94.31,44.37 L91.78,44.34 C91.7632422,44.1637307 91.7632422,43.9862693 91.78,43.81 C91.8721672,43.7125568 91.9900506,43.6432135 92.12,43.61 C92.3112233,43.5500714 92.5097091,43.5164297 92.71,43.51 L93.11,37.63 L92.23,37.53 L92.23,37.14 C92.2423482,37.0270146 92.2692373,36.9160971 92.31,36.81 L95,36.81 Z M119.31,36.81 C119.31,37.6 119.25,38.26 119.21,38.81 C119.097179,38.8252392 118.982821,38.8252392 118.87,38.81 C118.611718,38.8301053 118.357111,38.739174 118.17,38.56 L118.08,37.56 L115.86,37.56 L115.86,40.16 L118.17,40.07 C118.185488,40.3443482 118.168707,40.6195661 118.12,40.89 L115.86,40.89 L115.86,43.55 L118.21,43.55 L118.445,42.2495325 L118.58,42.25 C118.746474,42.2513309 118.911748,42.2783144 119.07,42.33 C119.197448,42.369083 119.313918,42.4375944 119.41,42.53 L119.409122,42.8466804 C119.406049,43.2377778 119.392222,43.7122222 119.33,44.35 L113.5,44.35 C113.478243,44.1740032 113.478243,43.9959968 113.5,43.82 C113.581062,43.7238939 113.689025,43.6542402 113.81,43.62 C113.983785,43.5590883 114.165928,43.525358 114.35,43.52 L114.35,37.63 L113.51,37.53 C113.499956,37.4035324 113.499956,37.2764676 113.51,37.15 C113.523679,37.0348914 113.547096,36.9211504 113.58,36.81 L119.31,36.81 Z M167,36.81 C167.016365,36.9829471 167.016365,37.1570529 167,37.33 C167,37.41 166.85,37.47 166.68,37.53 C166.506226,37.5924426 166.324353,37.6294908 166.14,37.64 L166.14,43.52 L166.99,43.62 L166.99,44 C166.981177,44.1158429 166.957655,44.2300932 166.92,44.34 L164,44.34 C163.983242,44.1637307 163.983242,43.9862693 164,43.81 C164.082929,43.716041 164.190211,43.6468269 164.31,43.61 C164.484243,43.5508279 164.666123,43.5171465 164.85,43.51 L164.85,37.63 L164.01,37.53 C163.999426,37.403554 163.999426,37.276446 164.01,37.15 C164.018823,37.0341571 164.042345,36.9199068 164.08,36.81 L167,36.81 Z M75.6,36.8 C75.6,37.61 75.6,38.33 75.51,38.97 C75.4035822,38.9803051 75.2964178,38.9803051 75.19,38.97 C74.9311698,38.9850651 74.6766058,38.8990153 74.48,38.73 L74.37,37.54 L73,37.54 L73,43.48 L73.84,43.58 L73.84,43.96 C73.8311774,44.0758429 73.8076552,44.1900932 73.77,44.3 L70.68,44.34 C70.6632422,44.1637307 70.6632422,43.9862693 70.68,43.81 C70.7653018,43.7140513 70.8763745,43.6446308 71,43.61 C71.1740224,43.5499866 71.3560273,43.516282 71.54,43.51 L71.54,37.58 L70.11,37.58 L70,39 C69.8935624,39.0098863 69.7864376,39.0098863 69.68,39 C69.4245619,39.0124527 69.1740601,38.9265663 68.98,38.76 L68.98,36.8 L75.6,36.8 Z M132.97,36.8 C132.97,37.61 132.97,38.33 132.88,38.97 C132.773582,38.9803051 132.666418,38.9803051 132.56,38.97 C132.30117,38.9850651 132.046606,38.8990153 131.85,38.73 L131.74,37.54 L130.39,37.54 L130.39,43.48 L131.23,43.58 L131.23,43.96 C131.221177,44.0758429 131.197655,44.1900932 131.16,44.3 L128.07,44.34 C128.048243,44.1640032 128.048243,43.9859968 128.07,43.81 C128.152929,43.716041 128.260211,43.6468269 128.38,43.61 C128.557473,43.5500131 128.74277,43.5163227 128.93,43.51 L128.93,37.58 L127.54,37.58 L127.4,38.98 L127,39 C126.744562,39.0124527 126.49406,38.9265663 126.3,38.76 L126.3,36.8 L132.97,36.8 Z M153.82,36.69 L156,43.52 L156.81,43.62 L156.95,43.62 C156.983007,43.8588651 156.983007,44.1011349 156.95,44.34 L153.82,44.34 C153.798243,44.1640032 153.798243,43.9859968 153.82,43.81 C153.82,43.74 153.95,43.68 154.1,43.61 C154.257261,43.5518129 154.422515,43.5180875 154.59,43.51 L154.14,42.18 L151.38,42.18 L150.92,43.52 L151.72,43.62 L151.72,43.84 C151.720366,44.0127083 151.682816,44.1833916 151.61,44.34 L149.13,44.34 C149.09081,44.1661869 149.074007,43.9880757 149.08,43.81 C149.173756,43.714571 149.291039,43.6455805 149.42,43.61 C149.601112,43.5508035 149.789593,43.5171462 149.98,43.51 L152.28,37 C152.669536,36.7889253 153.107023,36.6821371 153.55,36.69 L153.82,36.69 Z M171.39,37.55 C170.851327,37.5362312 170.339868,37.7863607 170.02,38.22 C169.612505,38.8629353 169.426383,39.6214677 169.49,40.38 C169.475074,40.9829476 169.573444,41.5833405 169.78,42.15 C169.925206,42.5778689 170.188726,42.9558114 170.54,43.24 C170.843304,43.4748434 171.216408,43.601558 171.6,43.6 L171.73,43.6 C172.2648,43.6088137 172.771082,43.3593954 173.09,42.93 C173.490633,42.2844567 173.672948,41.5271463 173.61,40.77 C173.586531,40.1593763 173.447403,39.558752 173.2,39 C173.061627,38.5713107 172.800932,38.1924334 172.45,37.91 C172.146696,37.6751566 171.773592,37.548442 171.39,37.55 Z M137.09,37.55 C136.551327,37.5362312 136.039868,37.7863607 135.72,38.22 C135.312505,38.8629353 135.126383,39.6214677 135.19,40.38 C135.175074,40.9829476 135.273444,41.5833405 135.48,42.15 C135.625206,42.5778689 135.888726,42.9558114 136.24,43.24 C136.54403,43.473489 136.916657,43.6000416 137.3,43.6 C137.837566,43.6087478 138.346849,43.3596829 138.67,42.93 C139.066088,42.2825658 139.248041,41.5267615 139.19,40.77 C139.202932,40.1680256 139.108106,39.5685899 138.91,39 C138.764794,38.5721311 138.501274,38.1941886 138.15,37.91 C137.847443,37.6737686 137.473844,37.5468857 137.09,37.55 Z M79.7,37.55 C79.1613267,37.5362312 78.6498679,37.7863607 78.33,38.22 C77.9266833,38.8644188 77.7441501,39.6226336 77.81,40.38 C77.7921082,40.9823005 77.8870757,41.5826309 78.09,42.15 C78.2389457,42.5785712 78.5058467,42.956392 78.86,43.24 C79.1625565,43.4762314 79.5361563,43.6031143 79.92,43.6 C80.4540613,43.6055425 80.9589389,43.3568161 81.28,42.93 C81.676088,42.2825658 81.8580409,41.5267615 81.8,40.77 C81.8178918,40.1676995 81.7229243,39.5673691 81.52,39 C81.3742335,38.5749922 81.1148511,38.1980231 80.77,37.91 C80.462896,37.675092 80.0866425,37.548502 79.7,37.55 Z M152.72,38.16 L152.67,38.16 L151.55,41.44 L153.8,41.44 L152.91,38.79 L152.78875,38.41125 C152.7575,38.3075 152.735,38.225 152.72,38.16 Z M87.16,37.59 L86.61,37.59 L86.61,40.66 C86.8076216,40.6981836 87.0087842,40.7149471 87.21,40.71 L87.25,40.7 C87.6899516,40.7337668 88.1232533,40.5771956 88.44,40.27 C88.7211637,39.9626405 88.868654,39.5561429 88.85,39.14 C88.8589447,38.7111256 88.6886028,38.2979557 88.38,38 C88.0427833,37.7087243 87.6046842,37.5614943 87.16,37.59 Z M108.73,37.58 L108.18,37.58 L108.18,40.65 C108.311748,40.6754557 108.445069,40.6913914 108.578931,40.697721 L108.78,40.7 C109.219952,40.7337668 109.653253,40.5771956 109.97,40.27 C110.216018,40.0010604 110.359693,39.6562183 110.379271,39.2954267 L110.38,39.14 C110.407296,38.7128754 110.250834,38.2944325 109.95,37.99 C109.612783,37.6987243 109.174684,37.5514943 108.73,37.58 Z M144.59,37.58 L144.04,37.58 L144.04,40.65 C144.171748,40.6754557 144.305069,40.6913914 144.438931,40.697721 L144.64,40.7 C145.079952,40.7337668 145.513253,40.5771956 145.83,40.27 C146.108503,39.961636 146.252478,39.5549062 146.23,39.14 C146.256157,38.714919 146.103953,38.2981714 145.81,37.99 C145.472783,37.6987243 145.034684,37.5514943 144.59,37.58 Z M71.15,9.37 C72.0385032,9.37002206 72.9245548,9.45628914 73.7957172,9.62738787 L74.23,9.72 C75.1778329,9.90627877 76.0894965,10.243932 76.93,10.72 L76.8670703,11.9704419 C76.7746484,13.6896094 76.675625,15.03125 76.57,15.99 C76.3353777,16.0307683 76.0980665,16.0541652 75.86,16.06 C75.3779764,16.0626839 74.8986137,15.9884164 74.44,15.84 C74.0619126,15.7212513 73.7186054,15.5118339 73.44,15.23 L73.1,12 C72.3374868,11.8139947 71.5548436,11.7233022 70.77,11.73 C69.715262,11.6392158 68.6660517,11.9579179 67.84,12.62 C67.2667916,13.1701647 66.9371989,13.923131 66.9182317,14.7121033 L66.92,14.91 C66.8999251,15.5590959 67.0815993,16.1984491 67.44,16.74 C67.7909147,17.2329093 68.2490792,17.6397867 68.78,17.93 C69.501551,18.3237422 70.2424911,18.680862 71,19 L71.71,19.3 C72.8957887,19.769459 74.0398476,20.3381433 75.13,21 C75.9817942,21.5532459 76.7047764,22.2830487 77.25,23.14 C77.8028425,24.0665781 78.0803346,25.131454 78.05,26.21 C78.1037047,27.6348841 77.6931012,29.0386567 76.88,30.21 C76.075026,31.3064397 74.975933,32.1524292 73.71,32.65 C72.2617386,33.218913 70.7157523,33.4975303 69.16,33.47 L69.16,33.46 C67.8677237,33.4371232 66.5811159,33.2829983 65.32,33 C64.1510438,32.7940892 63.0273178,32.3845385 62,31.79 L62.1849657,30.6454458 C62.4140741,29.2735802 62.6888889,27.7733333 63,26.14 C63.1763861,26.1259186 63.3536139,26.1259186 63.53,26.14 C64.0519452,26.1392435 64.5710524,26.2167725 65.07,26.37 C65.4604298,26.477196 65.8091312,26.7003649 66.07,27.01 L66,30.39 C66.5209999,30.6082617 67.0641942,30.7692082 67.62,30.87 C68.2293836,30.9897607 68.8489597,31.0500438 69.47,31.05 C70.5160528,31.0913913 71.5474195,30.793207 72.41,30.2 C73.1453918,29.6362319 73.5760098,28.7669729 73.5846501,27.8476671 L73.58,27.65 C73.5925042,26.9229106 73.3481735,26.2147056 72.89,25.65 C72.4427604,25.0951812 71.8884177,24.636063 71.26,24.3 L70.7546154,24.0322531 C70.25,23.7717524 69.5976923,23.4515339 68.7976923,23.0739281 L68.17,22.78 C67.2101196,22.3479593 66.2812406,21.8501068 65.39,21.29 C64.6381848,20.787233 64.0065141,20.1248325 63.54,19.35 C63.0639789,18.5218216 62.8060818,17.5880429 62.7881566,16.6360552 L62.79,16.35 C62.7596775,15.0586342 63.1072453,13.786536 63.79,12.69 C64.4989329,11.6019204 65.5153109,10.7491375 66.71,10.24 C68.1101406,9.63384199 69.6246353,9.33708289 71.15,9.37 Z M179.03,11.13 C180.709049,11.996071 182.091385,13.3435873 183,15 C183.979039,16.8703211 184.464364,18.9596298 184.41,21.07 C184.46917,23.38111 183.950127,25.6703971 182.9,27.73 C181.988166,29.5193535 180.573589,31.0034436 178.83,32 C177.00936,32.9916041 174.962875,33.4946121 172.89,33.46 L172.87,33.43 L172.473184,33.4244141 C171.495781,33.3984375 170.15375,33.2825 168.36,33.09 L162,33.09 C161.897217,32.5496793 161.853626,31.9997661 161.87,31.45 C162.128463,31.1437199 162.479394,30.9296518 162.87,30.84 C163.405435,30.6427755 163.969585,30.534675 164.54,30.52 L164.54,12.25 L161.93,11.95 C161.899061,11.5539366 161.899061,11.1560634 161.93,10.76 C161.964886,10.4202477 162.03527,10.085085 162.14,9.76 L172.9,9.76 C175.025122,9.70337898 177.131176,10.1740632 179.03,11.13 Z M120.78,9.76 L138.56,9.76 L138.519053,10.8624852 C138.442249,12.8346746 138.355897,14.5371795 138.26,15.97 C137.997908,16.0374171 137.730037,16.0788557 137.460264,16.0938448 L137.19,16.1 C136.39333,16.1529109 135.60957,15.8784145 135.02,15.34 L134.75,12.16 L127.87,12.16 L127.87,20.21 L135,19.9 C135.049344,20.749237 135.002378,21.6013304 134.86,22.44 L127.86,22.44 L127.86,30.69 L135.14,30.69 L135.87,26.61 C136.049714,26.5956409 136.230286,26.5956409 136.41,26.61 C136.925401,26.6091155 137.437935,26.68667 137.93,26.84 C138.315255,26.95859 138.660952,27.1798359 138.93,27.48 L138.925757,28.0586667 C138.907422,29.3702222 138.83,31.0573333 138.7,33.12 L120.64,33.12 C120.537217,32.5796793 120.493626,32.0297661 120.51,31.48 C120.768463,31.1737199 121.119394,30.9596518 121.51,30.87 C122.045435,30.6727755 122.609585,30.564675 123.18,30.55 L123.18,12.25 L120.57,11.95 C120.539061,11.5539366 120.539061,11.1560634 120.57,10.76 C120.604886,10.4202477 120.67527,10.085085 120.78,9.76 Z M151.64,9.76 C151.742373,10.2970035 151.785964,10.8435586 151.77,11.39 C151.514005,11.7011125 151.162495,11.9190487 150.77,12.01 C150.227156,12.2054491 149.65672,12.3134606 149.08,12.33 L149.08,30.69 L156.08,30.69 L156.85,26.01 C157.036437,25.9969173 157.223563,25.9969173 157.41,26.01 C157.907219,26.0031977 158.402671,26.0706062 158.88,26.21 C159.295872,26.3100945 159.678457,26.5168973 159.99,26.81 L159.964083,27.9321757 C159.911361,29.9397633 159.83,31.6730769 159.72,33.12 L141.87,33.09 C141.769821,32.549226 141.72293,31.9999293 141.73,31.45 C141.992519,31.148487 142.341777,30.9354395 142.73,30.84 C143.265675,30.6436394 143.829682,30.5355663 144.4,30.52 L144.4,12.25 L141.8,11.95 C141.769462,11.5539211 141.769462,11.1560789 141.8,10.76 C141.842697,10.4206573 141.916337,10.0859302 142.02,9.76 L151.64,9.76 Z M105.29,9.79 C105.367869,10.2201365 105.411313,10.6556215 105.420004,11.0923165 L105.420004,11.3615325 L105.324599,11.4675307 C105.082737,11.7107885 104.776424,11.8820418 104.44,11.96 C103.896892,12.1544776 103.326611,12.2624596 102.75,12.28 L102.75,30.55 L105.39,30.85 C105.416238,31.2529066 105.416238,31.6570934 105.39,32.06 C105.349491,32.4026011 105.265481,32.738642 105.14,33.06 L95.52,33.06 C95.417217,32.5196793 95.3736263,31.9697661 95.39,31.42 C95.6498659,31.1153608 96.0002109,30.9016504 96.39,30.81 C96.9328439,30.6145509 97.5032797,30.5065394 98.08,30.49 L98.08,22.33 L88,22.33 L88,30.55 L90.64,30.85 C90.6659351,31.2462427 90.6659351,31.6437573 90.64,32.04 C90.6045356,32.3968771 90.5307778,32.7489028 90.42,33.09 L80.82,33.09 C80.7222652,32.549013 80.6787165,31.9996287 80.69,31.45 C80.9484627,31.1437199 81.299394,30.9296518 81.69,30.84 C82.2256751,30.6436394 82.7896816,30.5355663 83.36,30.52 L83.36,12.25 L80.72,12 C80.6890608,11.6039366 80.6890608,11.2060634 80.72,10.81 C80.7548858,10.4702477 80.8252699,10.135085 80.93,9.81 L90.56,9.81 C90.6573358,10.3476706 90.700884,10.8936983 90.69,11.44 C90.434507,11.751686 90.0827854,11.9697534 89.69,12.06 C89.1505987,12.2553949 88.5834614,12.363421 88.01,12.38 L88.01,19.9 L98.01,19.9 L98.01,12.25 L95.42,12 C95.388749,11.597272 95.388749,11.192728 95.42,10.79 C95.4560057,10.4465887 95.5401645,10.1099539 95.67,9.79 L105.29,9.79 Z M117.83,9.81 C117.934797,10.346767 117.981732,10.8932244 117.97,11.44 C117.712537,11.7494302 117.361641,11.9669862 116.97,12.06 C116.430599,12.2553949 115.863461,12.363421 115.29,12.38 L115.29,30.55 L117.93,30.85 C117.955935,31.2462427 117.955935,31.6437573 117.93,32.04 C117.889376,32.3960634 117.815726,32.7475771 117.71,33.09 L108.08,33.09 C107.977217,32.5496793 107.933626,31.9997661 107.95,31.45 C108.208463,31.1437199 108.559394,30.9296518 108.95,30.84 C109.485435,30.6427755 110.049585,30.534675 110.62,30.52 L110.62,12.25 L108,12 C107.969061,11.6039366 107.969061,11.2060634 108,10.81 C108.034886,10.4702477 108.10527,10.135085 108.21,9.81 L117.83,9.81 Z M171.54,12.06 L169.21,12.06 L169.21,30.75 C170.128586,30.931458 171.063787,31.0152574 172,31 C174.666667,31 176.56,30.1533333 177.68,28.46 C178.870289,26.4780603 179.451077,24.1896875 179.35,21.88 C179.469583,19.3824923 178.839222,16.9063211 177.54,14.77 C176.34,12.9633333 174.34,12.06 171.54,12.06 Z" id="Shape"></path>
        </g>
    </g>
</svg>