<?xml version="1.0" encoding="UTF-8"?>
<svg width="60px" height="48px" viewBox="0 0 60 48" version="1.1" xmlns="http://www.w3.org/2000/svg" xmlns:xlink="http://www.w3.org/1999/xlink">
    <title>Group 9</title>
    <g id="Page-1" stroke="none" stroke-width="1" fill="none" fill-rule="evenodd">
        <g id="shieldSVG">
            <g id="Group-9">
                <path d="M9.74,29.39 C11,33.52 13.13,35.44 15.64,36.47 C16.2250771,36.6819104 16.8149077,36.8778952 17.4088413,37.057875 L17.37,37 C20.0686916,37.796991 22.7702239,38.3184321 25.4760539,38.4999281 C26.9515363,38.5879424 28.4343345,38.5825218 29.9152479,38.4825953 C34.532887,38.1261764 39.1654537,36.6814338 43.82,33.83 C40.8434625,39.8641634 35.8374756,44.6577322 29.68,47.37 C25.634339,45.5814879 22.0694181,42.889412 19.2502884,39.5170529 C13.4827393,38.0688609 9.41044096,34.233341 9.74,29.39 Z M29.58,7.47 L29.68,7.53 L48.13,18.23 C47.8066419,21.3972019 47.1811969,24.5229467 46.2639948,27.5649295 L47.45,26.8 C49.26,24.79 50.35,22.12 49.67,17.86 C52.9365118,23.5624192 48.0958887,31.1592672 39.7380765,34.5577857 C32.2775628,37.9157267 22.789283,38.5056161 16.11,34.93 C13.7637931,30.6913793 12.1260761,25.4273127 11.2958576,18.8407745 L11.21,18.13 L29.58,7.47 Z M23.34,35.07 L23.43,35.25 L23.43,35.32 L23.44,35.32 L23.57,35.64 C23.9,35.86 24.1,36.24 24.57,36.37 C25.0371349,36.4415386 25.5142445,36.3382836 25.91,36.08 L25.7853118,36.0073028 C25.6466942,35.9330579 25.6809091,36 25.28,36 C24.7893204,36.0012111 24.3143228,35.8376698 23.9298063,35.5384925 L23.79,35.42 L23.56,35.25 L23.34,35.07 Z M23.14,33.35 C23.68,35.2 24.96,35.77 27.06,34.77 C25.6054336,34.9169956 24.1629646,34.3944685 23.14,33.35 Z M22.5173504,31.232 L22.5548048,31.3431125 C23.0040265,32.5298866 24.4795652,33.5030435 26.01,33.79 C27.61,34.09 30.21,33.73 30.53,32.53 C29.0440977,32.8835825 27.5000579,32.9176673 26,32.63 C24.8755994,32.3872657 23.7962467,31.972646 22.7997349,31.4014908 L22.5173504,31.232 Z M34.55,28.56 C34.14,28.75 33.68,29.09 33.14,29.34 C32.6360925,29.5714431 32.1144166,29.7620555 31.58,29.91 C29.1064186,30.6141104 26.4941784,30.6760607 23.99,30.09 C23.5821827,29.9823827 23.1796538,29.8559131 22.7837061,29.7110193 L22.39,29.56 C22.1367842,29.4691661 21.8896163,29.3622827 21.65,29.24 L21.5256653,29.1600274 C21.3393827,29.035679 21.0455556,28.83 21.03,28.83 L20.9737037,28.8388889 C20.9655556,28.8388889 20.96,28.8366667 20.96,28.83 L20.9521875,28.8325 L20.91,28.9 L20.91,28.91 C21.05,28.92 21.31,29.46 21.45,29.59 C21.6830578,29.7834916 21.926773,29.9637741 22.18,30.13 C22.6802967,30.5058021 23.2372797,30.7994841 23.83,31 C25.0463189,31.4185596 26.3150226,31.6624385 27.5982028,31.7250363 L28.08,31.74 C30.45,31.81 35.4,31.33 34.55,28.56 Z M40.11,23.4 C35.97,26.45 29.62,27.97 24.11,27.6 C22.4401476,27.4265737 20.78484,27.1360627 19.1562807,26.7307349 L18.5073504,26.561 L18.5128491,26.5710083 C18.8119556,27.0494214 19.8226147,27.6182739 20.5734399,27.9359058 L20.73,28 C24.88,29.66 32.41,29 36.41,27 C37.2164498,26.6240161 37.9615129,26.1284312 38.62,25.53 C39.2826947,24.9519164 39.7941799,24.220733 40.11,23.4 Z M42.1748875,18.3193868 L42.06,18.33 C42.0870894,18.7606383 41.9433726,19.184603 41.66,19.51 C40.9,20.83 37.27,22.33 35.76,22.83 C35.04,23.07 34.05,23.29 33.39,23.55 L31.6179102,23.934043 C27.0040625,24.9051562 19.39375,26.16625 16.27,22.78 C15.91,22.35 15.98,22.17 15.75,21.78 C15.3582602,22.6249078 15.5382272,23.6247245 16.2,24.28 C19.8285,28.1051667 31.0861917,25.8579222 35.3112964,24.4222665 L35.52,24.35 L35.52,24.38 C36.9996218,23.981021 38.426368,23.4069654 39.77,22.67 C40.4127093,22.3367326 41.0192633,21.9379485 41.58,21.48 C42.0650761,21.0719659 42.4722986,20.5805603 42.7828701,20.0296688 L42.91,19.79 C43.1637358,19.3696384 43.0747503,18.8272506 42.7,18.51 C42.5534985,18.3829459 42.3660989,18.3159313 42.1748875,18.3193868 L42.1748875,18.3193868 Z M40.92,17.83 C42.9211765,13.3130588 31.5914907,15.3344152 28.4265574,16.0019594 L28.02,16.09 C25.7708861,16.5559729 23.5610138,17.194529 21.41,18 L20.441875,18.4165625 C19.3075,18.918125 17.83,19.6475 17.41,20.36 C17.0505086,20.7890158 17.058834,21.4090504 17.4123116,21.8272533 L17.4673504,21.885 L17.6146211,21.7070522 C18.0943202,21.1523412 18.6847774,20.7040312 19.3479683,20.3909923 L19.6,20.28 C24.18,18.12 33.46,15.85 38.46,16.53 C38.9600257,16.5928496 39.4503928,16.7171207 39.92,16.9 C40.66,17.21 40.52,17.35 40.92,17.83 Z" id="Shape" fill="#010101"></path>
                <polygon id="Path" fill="#C42126" points="29.58 4.08562073e-14 21.46 4.71 21.46 2.11 17.09 2.11 17.09 7.24 -1.42108547e-14 17.16 8.51 17.16 29.58 4.94 50.65 17.16 59.16 17.16"></polygon>
            </g>
        </g>
    </g>
</svg>