<?xml version="1.0" encoding="UTF-8"?>
<svg width="1182px" height="947px" viewBox="0 0 1182 947" version="1.1" xmlns="http://www.w3.org/2000/svg" xmlns:xlink="http://www.w3.org/1999/xlink">
    <title>Shape</title>
    <g id="Page-1" stroke="none" stroke-width="1" fill="none" fill-rule="evenodd" opacity="0.117582775">
        <g id="Shield-Storm-Restoration" transform="translate(-9.000000, -2152.000000)" fill="#FFFFFF">
            <path d="M203.372747,2739.85063 C228.556195,2822.34712 271.128214,2860.699 321.29524,2881.27318 C332.989096,2885.50608 344.77796,2889.42086 356.64883,2893.01595 L355.872514,2891.8599 C409.810894,2907.77975 463.806051,2918.1955 517.887104,2921.82087 C547.37737,2923.57895 577.013854,2923.47067 606.612667,2921.47465 C698.904789,2914.3552 791.495267,2885.49656 884.525047,2828.53935 C825.0334,2949.07138 724.979425,3044.82262 601.910801,3099 C521.050728,3063.27458 449.79914,3009.50054 393.453581,2942.13787 C278.178365,2913.21033 196.785896,2836.59606 203.372747,2739.85063 Z M599.912114,2302 L601.910801,2303.1985 L970.668428,2516.93033 C964.205514,2580.19498 951.704829,2642.63154 933.372837,2703.39496 L957.077361,2688.11554 C993.253583,2647.96591 1015.03926,2594.63283 1001.4482,2509.5396 C1066.73552,2623.44506 969.98665,2775.19163 802.940201,2843.07682 C653.827932,2910.15148 464.186981,2921.93449 330.689066,2850.51178 C283.79575,2765.8456 251.062924,2660.6962 234.469459,2529.13051 L232.753436,2514.93283 L599.912114,2302 Z M475.194088,2853.30827 L476.992905,2856.90376 L476.992905,2858.30201 L477.192774,2858.30201 L479.791066,2864.69398 C486.386731,2869.08847 490.384104,2876.67895 499.777929,2879.27569 C509.114491,2880.70467 518.650415,2878.64216 526.560326,2873.48296 L524.0682,2872.03083 L523.802212,2871.89178 C521.333596,2870.63546 521.71442,2871.88496 513.968602,2871.88496 C504.161457,2871.90915 494.667744,2868.64243 486.982465,2862.66638 L484.188176,2860.2995 L479.591197,2856.90376 L475.194088,2853.30827 Z M471.196715,2818.95138 C481.989621,2855.90501 507.572806,2867.29073 549.545219,2847.31579 C520.472999,2850.25202 491.642569,2839.81457 471.196715,2818.95138 Z M458.751902,2776.64446 L459.500498,2778.86393 C468.47903,2802.56966 497.970422,2822.00841 528.559012,2827.74035 C560.537994,2833.73283 612.503838,2826.54185 618.899634,2802.57193 C589.201109,2809.63472 558.340596,2810.31556 528.359144,2804.56942 C505.885902,2799.72082 484.313029,2791.43882 464.395884,2780.03003 L458.751902,2776.64446 Z M699.246825,2723.27143 C691.052211,2727.06667 681.858254,2733.85815 671.065348,2738.85188 C661.473415,2743.2548 651.559362,2746.91795 641.409999,2749.80963 L639.885841,2750.23759 C590.446707,2764.30215 538.236219,2765.53961 488.185549,2753.83308 C480.034559,2751.68343 471.989269,2749.15721 464.075517,2746.26297 L456.206567,2743.24637 C451.145578,2741.43196 446.205467,2739.29698 441.416289,2736.85439 L438.931228,2735.25694 L435.672948,2733.0542 C432.493551,2730.88927 429.253214,2728.66466 429.024433,2728.66466 L427.899247,2728.84222 C427.736391,2728.84222 427.625353,2728.79783 427.625353,2728.66466 L427.469206,2728.7146 L426.62601,2730.06291 L426.62601,2730.26266 C429.424171,2730.46241 434.620755,2741.24887 437.418916,2743.84561 C442.077011,2747.7106 446.948113,2751.31173 452.009326,2754.63208 C462.008687,2762.1387 473.141031,2768.00498 484.987651,2772.01028 C509.298049,2780.37098 534.655457,2785.24244 560.302206,2786.49283 L569.931819,2786.79173 C617.300685,2788.18997 716.235659,2778.60201 699.246825,2723.27143 Z M810.373785,2620.20075 C727.628171,2681.12431 600.711589,2711.48622 490.583972,2704.09549 C457.208861,2700.63131 424.124454,2694.82837 391.574662,2686.73197 L378.604581,2683.34153 L378.714483,2683.54144 C384.692683,2693.09772 404.892589,2704.46051 419.89923,2710.80519 L423.028374,2712.08546 C505.973857,2745.24386 656.474937,2732.0604 736.42239,2692.11053 C752.540793,2684.60027 767.432267,2674.70099 780.593358,2662.74737 C793.838547,2651.20018 804.06153,2636.59484 810.373785,2620.20075 Z M851.644409,2518.71582 L849.348168,2518.92782 C849.8896,2527.52979 847.017151,2535.99846 841.353423,2542.49825 C826.163407,2568.86516 753.611093,2598.82757 723.430929,2608.81504 C709.040388,2613.60902 689.253393,2618.00351 676.062063,2623.19699 L640.643546,2630.86823 C548.427204,2650.26615 396.320928,2675.45642 333.886964,2607.81629 C326.691693,2599.22707 328.090774,2595.63158 323.493795,2587.84135 C315.664145,2604.71833 319.261121,2624.68961 332.487884,2637.7787 C405.010217,2714.18616 630.016161,2669.29759 714.462752,2640.62046 L718.634082,2639.17694 L718.634082,2639.77619 C748.207081,2631.80661 776.723262,2620.33989 803.578251,2605.61905 C816.423994,2598.96205 828.547107,2590.99636 839.754474,2581.84887 C849.449622,2573.69842 857.588724,2563.88262 863.796074,2552.8786 L866.337002,2548.09123 C871.408385,2539.69453 869.629844,2528.86037 862.13976,2522.52331 C859.211654,2519.98541 855.466124,2518.6468 851.644409,2518.71582 Z M576.858414,2472.42535 L568.732608,2474.18396 C523.779875,2483.49174 479.611461,2496.24686 436.619441,2512.33609 L417.269659,2520.6569 L414.517821,2521.88067 C392.268432,2531.84058 364.730692,2545.81409 356.671988,2559.47694 C349.486883,2568.04651 349.653281,2580.43166 356.71819,2588.78523 L357.818243,2589.93872 L360.761722,2586.38423 C370.349403,2575.30391 382.150789,2566.34894 395.405895,2560.09601 L400.443219,2557.87895 C491.983053,2514.73308 677.461144,2469.38997 777.39546,2482.97293 C787.389405,2484.22835 797.190306,2486.71066 806.576281,2490.36366 L807.516219,2490.76279 C821.250001,2496.68069 818.742197,2499.56082 826.563144,2508.94035 C866.560384,2418.71473 640.115503,2459.0912 576.858414,2472.42535 Z M600,2152 L1191,2495 L1020.97262,2495 L600,2250.74242 L179.027383,2495 L9,2495 L350.453347,2296.71562 L350.453347,2194.17541 L437.764706,2194.17541 L437.764706,2246.1451 L600,2152 Z" id="Shape"></path>
        </g>
    </g>
</svg>