<?xml version="1.0" encoding="UTF-8"?>
<svg width="199px" height="51px" viewBox="0 0 199 51" version="1.1" xmlns="http://www.w3.org/2000/svg" xmlns:xlink="http://www.w3.org/1999/xlink">
    <title>Group 16</title>
    <defs>
        <polygon id="path-1" points="0.2772 0.156462222 131.917867 0.156462222 131.917867 25.7179289 0.2772 25.7179289"></polygon>
        <polygon id="path-3" points="0.31142029 0.542389189 39.5131594 0.542389189 39.5131594 44 0.31142029 44"></polygon>
        <polygon id="path-5" points="0 0.132109375 63.6285651 0.132109375 63.6285651 18.7948594 0 18.7948594"></polygon>
    </defs>
    <g id="Page-1" stroke="none" stroke-width="1" fill="none" fill-rule="evenodd">
        <g id="Shield-Storm-Restoration" transform="translate(-668.000000, -2899.000000)">
            <g id="Group-16" transform="translate(668.000000, 2899.000000)">
                <g id="Group-3" transform="translate(67.000000, 10.000000)">
                    <mask id="mask-2" fill="white">
                        <use xlink:href="#path-1"></use>
                    </mask>
                    <g id="Clip-2"></g>
                    <path d="M118.56328,23.1369956 C121.4356,23.1369956 123.469573,22.2408622 124.665787,20.4503289 C125.862587,18.65864 126.460987,16.3365511 126.460987,13.48464 C126.460987,10.3738844 125.81448,7.86344 124.52264,5.95446222 C123.230213,4.04490667 121.088293,3.09041778 118.09688,3.09041778 L115.5836,3.09041778 L115.5836,22.8538844 C116.49352,23.04224 117.48616,23.1369956 118.56328,23.1369956 L118.56328,23.1369956 Z M119.496667,25.6821067 C118.467653,25.6821067 116.851973,25.56424 114.650213,25.3285067 L107.829627,25.3285067 C107.709947,24.5976178 107.662427,24.0204178 107.685893,23.5963289 C107.829627,23.3605956 108.176933,23.1427733 108.727227,22.9422844 C109.27752,22.7417956 109.87592,22.6297067 110.522427,22.6065956 L110.522427,3.26721778 L107.722267,2.94944 C107.697627,2.47797333 107.703493,2.05966222 107.739867,1.69450667 C107.775653,1.32877333 107.85368,0.957262222 107.97336,0.580551111 L119.532453,0.580551111 C122.069787,0.580551111 124.26568,1.06357333 126.120133,2.03019556 C127.974587,2.99681778 129.404293,4.38117333 130.40984,6.18441778 C131.4148,7.98708444 131.91816,10.1260178 131.91816,12.6012178 C131.91816,15.3352622 131.3796,17.6856622 130.30248,19.6547289 C129.22536,21.62264 127.753413,23.1190844 125.886053,24.1440622 C124.020453,25.1701956 121.890267,25.6821067 119.496667,25.6821067 L119.496667,25.6821067 Z M86.1833867,25.3285067 C86.06312,24.5976178 86.0156,24.0204178 86.0396533,23.5963289 C86.1833867,23.3605956 86.52952,23.1427733 87.0804,22.9422844 C87.6306933,22.7417956 88.2290933,22.6297067 88.8756,22.6065956 L88.8756,3.26721778 L86.07544,2.94944 C86.0513867,2.47797333 86.0572533,2.05966222 86.09304,1.69450667 C86.1288267,1.32877333 86.2068533,0.957262222 86.3265333,0.580551111 L96.66536,0.580551111 C96.78504,1.31144 96.83256,1.88864 96.8090933,2.31272889 C96.66536,2.54846222 96.3121867,2.76686222 95.7495733,2.96677333 C95.18696,3.16726222 94.58328,3.27935111 93.9367733,3.30246222 L93.9367733,22.7833956 L101.47544,22.7833956 L102.30088,17.8335733 C102.444613,17.8098844 102.648187,17.7983289 102.9116,17.7983289 C103.46248,17.7983289 103.988133,17.8688178 104.491493,18.0103733 C104.99368,18.1519289 105.388507,18.3639733 105.675387,18.6470844 C105.627867,21.2863733 105.53224,23.5137067 105.388507,25.3285067 L86.1833867,25.3285067 Z M79.7206667,18.4702844 C79.8403467,18.4465956 80.0321867,18.4344622 80.2950133,18.4344622 C80.8699467,18.4344622 81.4143733,18.5170844 81.92888,18.6817511 C82.4433867,18.8469956 82.8200267,19.0711733 83.0593867,19.3537067 C83.0593867,20.8149067 82.97608,22.8070844 82.8082933,25.3285067 L63.3514933,25.3285067 C63.2318133,24.5976178 63.1837067,24.0204178 63.20776,23.5963289 C63.3514933,23.3605956 63.6982133,23.1427733 64.2490933,22.9422844 C64.7988,22.7417956 65.3972,22.6297067 66.0437067,22.6065956 L66.0437067,3.26721778 L63.2435467,2.94944 C63.2194933,2.47797333 63.22536,2.05966222 63.2611467,1.69450667 C63.29752,1.32877333 63.3755467,0.957262222 63.4952267,0.580551111 L82.5929867,0.580551111 C82.4967733,3.17304 82.3894133,5.36512889 82.2697333,7.15624 C81.9106933,7.25041778 81.5281867,7.29779556 81.12104,7.29779556 C80.11608,7.29779556 79.33816,7.02681778 78.78728,6.48486222 L78.5004,3.12566222 L71.10488,3.12566222 L71.10488,11.6461511 L78.78728,11.3636178 C78.8353867,12.37704 78.78728,13.2725956 78.6441333,14.0502844 L71.10488,14.0502844 L71.10488,22.7833956 L78.9310133,22.7833956 L79.7206667,18.4702844 Z M49.8534667,25.3285067 C49.7337867,24.5976178 49.68568,24.0204178 49.7097333,23.5963289 C49.8534667,23.3605956 50.2007733,23.1427733 50.7510667,22.9422844 C51.30136,22.7417956 51.8991733,22.6297067 52.5462667,22.6065956 L52.5462667,3.26721778 L49.74552,2.94944 C49.7214667,2.47797333 49.7273333,2.05966222 49.7637067,1.69450667 C49.7994933,1.32877333 49.87752,0.957262222 49.9972,0.580551111 L60.3360267,0.580551111 C60.4557067,1.31144 60.5032267,1.88864 60.4791733,2.31272889 C60.3360267,2.54846222 59.9822667,2.76686222 59.42024,2.96677333 C58.8576267,3.16726222 58.25336,3.27935111 57.60744,3.30246222 L57.60744,22.6424178 L60.4439733,22.9596178 C60.46744,23.4316622 60.4615733,23.8493956 60.4252,24.2151289 C60.3894133,24.5802844 60.3119733,24.9517956 60.1922933,25.3285067 L49.8534667,25.3285067 Z M47.01752,2.31272889 C46.8737867,2.54846222 46.5206133,2.76686222 45.958,2.96677333 C45.3953867,3.16726222 44.7917067,3.27935111 44.1452,3.30246222 L44.1452,22.6424178 L46.9811467,22.9596178 C47.0052,23.4553511 46.99992,23.87944 46.9635467,24.2324622 C46.92776,24.58664 46.8374133,24.9517956 46.6942667,25.3285067 L36.35544,25.3285067 C36.23576,24.5976178 36.18824,24.0204178 36.2117067,23.5963289 C36.35544,23.3605956 36.7086133,23.1427733 37.27064,22.9422844 C37.8332533,22.7417956 38.43752,22.6297067 39.08344,22.6065956 L39.08344,13.9445511 L28.314,13.9445511 L28.314,22.6424178 L31.1499467,22.9596178 C31.174,23.4316622 31.1681333,23.8493956 31.1323467,24.2151289 C31.0959733,24.5802844 31.0179467,24.9517956 30.8982667,25.3285067 L20.5600267,25.3285067 C20.4403467,24.5976178 20.39224,24.0204178 20.4162933,23.5963289 C20.5600267,23.3605956 20.9067467,23.1427733 21.4576267,22.9422844 C22.00792,22.7417956 22.60632,22.6297067 23.25224,22.6065956 L23.25224,3.26721778 L20.4526667,2.94944 C20.4286133,2.47797333 20.4338933,2.05966222 20.4702667,1.69450667 C20.5060533,1.32877333 20.58408,0.957262222 20.7031733,0.580551111 L31.042,0.580551111 C31.16168,1.31144 31.2103733,1.88864 31.18632,2.31272889 C31.042,2.54846222 30.6894133,2.76686222 30.1268,2.96677333 C29.5647733,3.16726222 28.9605067,3.27935111 28.314,3.30246222 L28.314,11.3636178 L39.08344,11.3636178 L39.08344,3.26721778 L36.2474933,2.94944 C36.22344,2.45428444 36.2293067,2.03019556 36.26568,1.67659556 C36.3014667,1.32241778 36.3918133,0.957262222 36.53496,0.580551111 L46.8737867,0.580551111 C46.9934667,1.31144 47.0409867,1.88864 47.01752,2.31272889 L47.01752,2.31272889 Z M8.03117333,25.7179289 C6.73874667,25.7179289 5.36301333,25.5705956 3.90338667,25.2759289 C2.44258667,24.9806844 1.23464,24.5392622 0.2772,23.9499289 C0.56408,22.1825067 0.923706667,20.1903289 1.35432,17.9745511 C1.474,17.95144 1.66525333,17.9398844 1.92808,17.9398844 C2.50301333,17.9398844 3.05272,18.0219289 3.58013333,18.1871733 C4.10637333,18.3524178 4.47714667,18.57544 4.69245333,18.8591289 L4.58509333,22.46504 C5.08728,22.6770844 5.66749333,22.8481067 6.32632,22.9781067 C6.98456,23.1069511 7.64808,23.17224 8.31864,23.17224 C9.58701333,23.17224 10.64008,22.8717956 11.47784,22.2703289 C12.3150133,21.66944 12.7338933,20.7675289 12.7338933,19.5657511 C12.7338933,18.7175733 12.4886667,17.99824 11.9982133,17.4094844 C11.50776,16.8201511 10.92168,16.3423289 10.2388,15.9771733 C9.55709333,15.6125956 8.45005333,15.07584 6.91826667,14.36864 C5.72146667,13.8266844 4.72882667,13.30264 3.93858667,12.7959289 C3.14893333,12.28864 2.48482667,11.6051289 1.94626667,10.7448178 C1.40829333,9.88450667 1.13901333,8.81850667 1.13901333,7.54566222 C1.13901333,6.08388444 1.50392,4.79370667 2.23373333,3.67397333 C2.96354667,2.55481778 4.01016,1.68815111 5.37474667,1.07512889 C6.73874667,0.462684444 8.33096,0.156462222 10.14904,0.156462222 C11.22616,0.156462222 12.3273333,0.279528889 13.4519733,0.527395556 C14.5766133,0.774684444 15.5457867,1.13464 16.36008,1.60552889 C16.2404,4.08072889 16.1084,5.94232889 15.9646667,7.19148444 C15.62968,7.23886222 15.3785867,7.26197333 15.2108,7.26197333 C14.68456,7.26197333 14.17592,7.18628444 13.68488,7.03259556 C13.1950133,6.87948444 12.8177867,6.66108444 12.55496,6.37855111 L12.2669067,2.98410667 C11.5013067,2.79632889 10.6641333,2.70157333 9.75421333,2.70157333 C8.31864,2.70157333 7.27144,3.01415111 6.6132,3.63872889 C5.95496,4.26330667 5.62584,5.06988444 5.62584,6.06019556 C5.62584,6.83846222 5.81181333,7.48615111 6.182,8.00499556 C6.55336,8.52326222 7.03208,8.94215111 7.61874667,9.25992889 C8.20482667,9.57828444 9.01266667,9.94979556 10.04168,10.3738844 L10.7955467,10.69224 C12.2792267,11.3283733 13.4936267,11.9529511 14.4393333,12.5653956 C15.3844533,13.1784178 16.1441867,13.9324178 16.7185333,14.8279733 C17.2934667,15.7241067 17.5803467,16.8080178 17.5803467,18.0808622 C17.5803467,19.7304178 17.1614667,21.1274844 16.3242933,22.2703289 C15.4865333,23.4137511 14.3495733,24.2740622 12.9134133,24.85184 C11.47784,25.42904 9.84984,25.7179289 8.03117333,25.7179289 L8.03117333,25.7179289 Z" id="Fill-1" fill="#FEFEFE" mask="url(#mask-2)"></path>
                </g>
                <path d="M191.806782,42.2799411 C191.66035,42.0655301 191.551555,41.8410159 191.482162,41.6047148 L191.42453,41.6047148 L191.42453,47.0379569 L192.328997,47.1373044 C192.336642,47.2849225 192.33429,47.415702 192.323117,47.5302042 C192.311355,47.6447064 192.286067,47.7608924 192.247842,47.8787624 L189.604421,47.8787624 C189.565608,47.6497579 189.550318,47.4695854 189.557963,47.3365607 C189.604421,47.2630323 189.717921,47.1945555 189.900226,47.1316916 C190.081354,47.0688276 190.276597,47.0340279 190.485366,47.0267312 L190.485366,40.9743914 L189.569136,40.8744826 C189.56208,40.7195678 189.563844,40.5865432 189.575605,40.47597 C189.587367,40.3653968 189.615595,40.2508945 189.662641,40.1330246 L192.306062,40.1330246 L195.748684,45.2671017 C195.895704,45.4815127 196.003911,45.7060268 196.073305,45.9423279 L196.131525,45.9423279 L196.131525,40.9743914 L195.227057,40.8744826 C195.219412,40.7263032 195.221764,40.596085 195.232938,40.4815828 C195.244699,40.3670806 195.269987,40.2508945 195.308212,40.1330246 L197.951633,40.1330246 C197.990446,40.3614678 198.005736,40.5422016 197.998091,40.6752263 C197.951633,40.7487546 197.838134,40.8172315 197.655829,40.8800954 C197.4747,40.9423981 197.279457,40.9777591 197.070689,40.9844945 L197.070689,47.7238476 C196.738423,47.8787624 196.336177,47.9556585 195.864536,47.9556585 C195.733394,47.9556585 195.636949,47.9522907 195.574613,47.944994 L191.806782,42.2799411 Z M185.002105,47.1154143 C185.604299,47.1154143 186.092994,46.884726 186.468777,46.4239108 C186.843384,45.9625342 187.030982,45.2227601 187.030982,44.2051498 C187.030982,43.489511 186.93042,42.8827615 186.729297,42.3849014 C186.528173,41.8870413 186.257656,41.5143479 185.917158,41.266821 C185.577247,41.0204168 185.194995,40.8963727 184.769813,40.8963727 C184.167031,40.8963727 183.676572,41.1248158 183.29726,41.5828247 C182.919124,42.0397109 182.729174,42.7817302 182.729174,43.8066372 C182.729174,44.522276 182.8315,45.1290255 183.03674,45.6268856 C183.24198,46.125307 183.515438,46.4974391 183.859465,46.7444047 C184.203492,46.9919315 184.584568,47.1154143 185.002105,47.1154143 L185.002105,47.1154143 Z M184.653961,48 C183.919449,48 183.274325,47.8434014 182.718001,47.5302042 C182.161677,47.2164457 181.728262,46.76854 181.41952,46.1859258 C181.110189,45.6027503 180.955524,44.9241563 180.955524,44.1495825 C180.955524,43.3087771 181.143122,42.5746159 181.517729,41.9476601 C181.892924,41.3207044 182.396909,40.8396829 183.03086,40.503473 C183.664222,40.1678243 184.360509,40 185.117957,40 C185.851881,40 186.499357,40.1571599 187.059798,40.4703571 C187.61965,40.7841156 188.052477,41.2320213 188.358279,41.8151968 C188.662905,42.397811 188.815806,43.076405 188.815806,43.8509787 C188.815806,44.6917842 188.628796,45.4253841 188.253601,46.0529011 C187.878994,46.6798569 187.374421,47.1608784 186.741058,47.4970883 C186.107108,47.832737 185.411409,48 184.653961,48 L184.653961,48 Z M176.67724,47.8787624 C176.639015,47.6497579 176.623725,47.4695854 176.630782,47.3365607 C176.67724,47.2630323 176.789563,47.1945555 176.967752,47.1316916 C177.144764,47.0688276 177.338242,47.0340279 177.547011,47.0267312 L177.547011,40.9743914 L176.642543,40.8744826 C176.634898,40.7263032 176.636663,40.596085 176.649012,40.4815828 C176.660186,40.3670806 176.685473,40.2508945 176.724286,40.1330246 L180.062818,40.1330246 C180.101632,40.3614678 180.116922,40.5422016 180.109277,40.6752263 C180.062818,40.7487546 179.948731,40.8172315 179.767014,40.8800954 C179.585885,40.9423981 179.390643,40.9777591 179.181286,40.9844945 L179.181286,47.0379569 L180.097515,47.1373044 C180.105748,47.2849225 180.103984,47.415702 180.091634,47.5302042 C180.080461,47.6447064 180.055173,47.7608924 180.01636,47.8787624 L176.67724,47.8787624 Z M170.567674,47.8787624 L173.907382,47.8787624 C173.945607,47.7608924 173.970306,47.6447064 173.982068,47.5302042 C173.99383,47.415702 173.995594,47.2849225 173.987949,47.1373044 L173.083481,47.0379569 L173.083481,40.9300498 L174.544273,40.9300498 L174.660713,42.1474777 C174.838313,42.3164246 175.092952,42.40174 175.425805,42.40174 C175.541657,42.40174 175.657509,42.389953 175.773361,42.3680629 C175.819819,41.711359 175.850399,40.9665334 175.866277,40.1330246 L168.678172,40.1330246 C168.669939,40.2952361 168.66641,40.5382726 168.66641,40.8638181 C168.66641,41.306111 168.678172,41.7338104 168.701107,42.1474777 C168.879295,42.3164246 169.129817,42.40174 169.455026,42.40174 C169.570878,42.40174 169.687318,42.389953 169.802581,42.3680629 L169.953718,40.9300498 L171.449206,40.9300498 L171.449206,47.0267312 C171.23985,47.0340279 171.045195,47.0688276 170.863478,47.1316916 C170.681761,47.1945555 170.567674,47.2630323 170.521804,47.3365607 C170.51357,47.4695854 170.52886,47.6497579 170.567674,47.8787624 L170.567674,47.8787624 Z M163.264304,44.8910405 L165.687195,44.8910405 L164.724508,42.1693679 C164.623946,41.8668351 164.558669,41.6529853 164.527501,41.5272574 L164.469869,41.5272574 L163.264304,44.8910405 Z M169.083947,47.1373044 C169.099825,47.4325405 169.083947,47.6795061 169.037489,47.8787624 L165.66426,47.8787624 C165.624859,47.6497579 165.609569,47.4695854 165.617802,47.3365607 C165.656027,47.2630323 165.758353,47.1945555 165.92478,47.1316916 C166.090618,47.0688276 166.266454,47.0340279 166.452288,47.0267312 L165.965945,45.6549498 L162.997316,45.6549498 L162.498624,47.0379569 L163.356633,47.1373044 C163.364866,47.1889427 163.368395,47.2630323 163.368395,47.3590121 C163.368395,47.5509717 163.329581,47.7238476 163.251955,47.8787624 L160.585599,47.8787624 C160.539728,47.6722094 160.520322,47.4914755 160.527967,47.3365607 C160.58207,47.2630323 160.703803,47.1945555 160.893165,47.1316916 C161.082527,47.0688276 161.285414,47.0340279 161.501828,47.0267312 L163.971177,40.3322809 C164.380481,40.1178699 164.837419,40.0112257 165.339052,40.0112257 C165.470782,40.0112257 165.567227,40.0151547 165.628975,40.0224514 L168.202415,47.0379569 L169.083947,47.1373044 Z M155.82156,44.1389181 C156.385529,44.1389181 156.812475,43.9913001 157.101811,43.6955027 C157.391735,43.4008279 157.53699,43.0141023 157.53699,42.5342033 C157.53699,42.0251175 157.38409,41.6305339 157.078876,41.3504525 C156.773662,41.0698099 156.334954,40.9300498 155.76334,40.9300498 L155.171731,40.9300498 L155.171731,44.0833509 C155.364622,44.1203957 155.581035,44.1389181 155.82156,44.1389181 L155.82156,44.1389181 Z M160.16865,46.9386094 C160.253921,47.0710728 160.303908,47.2484389 160.319198,47.4695854 C160.22687,47.6093454 160.052798,47.7311443 159.797571,47.8344208 C159.542932,47.9376973 159.275944,47.9893356 158.997782,47.9893356 C158.673162,47.9893356 158.396764,47.9135621 158.169177,47.7625763 C157.940414,47.6110293 157.710474,47.3590121 157.47877,47.0048411 C157.185318,46.5698449 156.791305,45.879464 156.296141,44.935382 C156.211457,44.9426787 156.087961,44.9466077 155.92565,44.9466077 C155.701004,44.9466077 155.450482,44.9320143 155.171731,44.9022662 L155.171731,47.0379569 L156.087961,47.1373044 C156.095018,47.2849225 156.093253,47.415702 156.08208,47.5302042 C156.070318,47.6447064 156.045031,47.7608924 156.006805,47.8787624 L152.667686,47.8787624 C152.628872,47.6497579 152.613582,47.4695854 152.621227,47.3365607 C152.667686,47.2630323 152.780009,47.1945555 152.957021,47.1316916 C153.135209,47.0688276 153.3281,47.0340279 153.537456,47.0267312 L153.537456,40.9743914 L152.632989,40.8744826 C152.624756,40.7263032 152.627108,40.596085 152.638281,40.4815828 C152.650043,40.3670806 152.675331,40.2508945 152.713556,40.1330246 L155.92565,40.1330246 C157.00713,40.1330246 157.832795,40.3300358 158.400292,40.7246194 C158.968966,41.1197643 159.253009,41.6709465 159.253009,42.3792886 C159.253009,42.873781 159.12716,43.310461 158.876049,43.6904511 C158.624939,44.06988 158.26327,44.3673613 157.792217,44.581211 L158.012159,44.9241563 C158.491445,45.6470918 158.844881,46.1674034 159.073056,46.4845296 C159.301231,46.8016558 159.469422,46.9638673 159.577041,46.971164 L160.16865,46.9386094 Z M147.960691,47.1154143 C148.563473,47.1154143 149.052168,46.884726 149.427363,46.4239108 C149.80197,45.9625342 149.989568,45.2227601 149.989568,44.2051498 C149.989568,43.489511 149.889006,42.8827615 149.687883,42.3849014 C149.486759,41.8870413 149.216242,41.5143479 148.876332,41.266821 C148.536421,41.0204168 148.153581,40.8963727 147.728987,40.8963727 C147.125617,40.8963727 146.635158,41.1248158 146.256434,41.5828247 C145.87771,42.0397109 145.688348,42.7817302 145.688348,43.8066372 C145.688348,44.522276 145.790674,45.1290255 145.995914,45.6268856 C146.199978,46.125307 146.474612,46.4974391 146.818639,46.7444047 C147.162666,46.9919315 147.543154,47.1154143 147.960691,47.1154143 L147.960691,47.1154143 Z M147.613135,48 C146.878623,48 146.233499,47.8434014 145.677175,47.5302042 C145.119675,47.2164457 144.687436,46.76854 144.378694,46.1859258 C144.068775,45.6027503 143.914698,44.9241563 143.914698,44.1495825 C143.914698,43.3087771 144.101708,42.5746159 144.476903,41.9476601 C144.85151,41.3207044 145.356083,40.8396829 145.989446,40.503473 C146.623396,40.1678243 147.319095,40 148.076543,40 C148.811055,40 149.457943,40.1571599 150.018384,40.4703571 C150.578824,40.7841156 151.011651,41.2320213 151.316865,41.8151968 C151.622079,42.397811 151.77498,43.076405 151.77498,43.8509787 C151.77498,44.6917842 151.587382,45.4253841 151.212775,46.0529011 C150.83758,46.6798569 150.333595,47.1608784 149.699056,47.4970883 C149.065694,47.832737 148.370583,48 147.613135,48 L147.613135,48 Z M138.013312,47.8787624 C137.974499,47.6497579 137.959209,47.4695854 137.966854,47.3365607 C138.013312,47.2630323 138.1274,47.1945555 138.308529,47.1316916 C138.490834,47.0688276 138.686076,47.0340279 138.894257,47.0267312 L138.894257,40.9300498 L137.398769,40.9300498 L137.248808,42.3680629 C137.132368,42.389953 137.016516,42.40174 136.900664,42.40174 C136.576044,42.40174 136.324346,42.3164246 136.146746,42.1474777 C136.123222,41.7338104 136.112049,41.306111 136.112049,40.8638181 C136.112049,40.5382726 136.116165,40.2952361 136.123222,40.1330246 L143.311916,40.1330246 C143.296626,40.9665334 143.265458,41.711359 143.218999,42.3680629 C143.103147,42.389953 142.986708,42.40174 142.870856,42.40174 C142.539178,42.40174 142.283952,42.3164246 142.105763,42.1474777 L141.989911,40.9300498 L140.52912,40.9300498 L140.52912,47.0379569 L141.433587,47.1373044 C141.440644,47.2849225 141.439468,47.415702 141.427707,47.5302042 C141.415945,47.6447064 141.390658,47.7608924 141.352432,47.8787624 L138.013312,47.8787624 Z M132.227778,48 C131.810829,48 131.366829,47.9539746 130.895188,47.8619238 C130.423548,47.769873 130.033063,47.6317968 129.724321,47.4471339 C129.816649,46.8942679 129.932501,46.2701186 130.071288,45.5769312 C130.110689,45.5696345 130.17185,45.5657055 130.257121,45.5657055 C130.442367,45.5657055 130.620555,45.5915246 130.79051,45.6437241 C130.960465,45.6953624 131.080434,45.765523 131.149827,45.8536448 L131.11513,46.9823897 C131.277441,47.0486213 131.465038,47.1025047 131.677335,47.1429173 C131.89022,47.1833298 132.104282,47.2035361 132.321283,47.2035361 C132.730587,47.2035361 133.070497,47.1092402 133.341014,46.9217709 C133.611531,46.7337403 133.74679,46.4514137 133.74679,46.0753526 C133.74679,45.8093033 133.667987,45.5847892 133.509205,45.4001263 C133.351012,45.2154634 133.16165,45.0661615 132.94112,44.9522206 C132.72059,44.8377184 132.363625,44.6698941 131.868461,44.4481863 C131.482681,44.2792395 131.161589,44.1147829 130.906362,43.9559391 C130.651723,43.7970953 130.437074,43.5832456 130.263002,43.31439 C130.089518,43.044973 130.001894,42.7115695 130.001894,42.3130569 C130.001894,41.8556093 130.120099,41.4514839 130.355919,41.1012418 C130.591739,40.7504385 130.929297,40.479899 131.370357,40.2879394 C131.810829,40.0959798 132.324812,40 132.912304,40 C133.259859,40 133.615648,40.03929 133.979082,40.1167474 C134.341927,40.1936434 134.654786,40.3064618 134.918246,40.4540798 C134.879432,41.2286536 134.837091,41.8112678 134.790632,42.2019224 C134.682426,42.2170771 134.601271,42.2243738 134.547167,42.2243738 C134.377212,42.2243738 134.212549,42.2002385 134.054356,42.151968 C133.895574,42.10482 133.773842,42.0363432 133.689158,41.9476601 L133.596241,40.8857083 C133.349248,40.826212 133.078731,40.7964639 132.785279,40.7964639 C132.321283,40.7964639 131.982549,40.8946888 131.770252,41.0900161 C131.557955,41.2859047 131.451512,41.5384831 131.451512,41.8477514 C131.451512,42.0913492 131.511497,42.2945345 131.631465,42.4561847 C131.750845,42.6189574 131.906098,42.7502982 132.094872,42.8496457 C132.284234,42.9489932 132.545342,43.0651793 132.877607,43.1982039 L133.121072,43.2975514 C133.59977,43.4968077 133.992019,43.6926963 134.297821,43.8840946 C134.603035,44.0760542 134.848264,44.311794 135.034098,44.5924367 C135.219343,44.8725181 135.31226,45.2120957 135.31226,45.6106083 C135.31226,46.1269908 135.177001,46.5642321 134.906484,46.9217709 C134.635967,47.2793096 134.268417,47.5487266 133.80501,47.7294605 C133.341014,47.9101943 132.815271,48 132.227778,48 L132.227778,48 Z M127.602527,45.7318459 C127.64134,45.7251105 127.7025,45.7211815 127.787772,45.7211815 C127.973017,45.7211815 128.149442,45.7470006 128.31528,45.7986389 C128.481707,45.8502771 128.603439,45.9198765 128.680478,46.0091209 C128.680478,46.4660072 128.653426,47.0890339 128.599911,47.8787624 L122.315685,47.8787624 C122.27746,47.6497579 122.261582,47.4695854 122.269227,47.3365607 C122.315685,47.2630323 122.42742,47.1945555 122.605608,47.1316916 C122.783209,47.0688276 122.976687,47.0340279 123.184868,47.0267312 L123.184868,40.9743914 L122.280988,40.8744826 C122.273343,40.7263032 122.275695,40.596085 122.286869,40.4815828 C122.298631,40.3670806 122.323918,40.2508945 122.362143,40.1330246 L128.529929,40.1330246 C128.499349,40.9446432 128.464064,41.6305339 128.425839,42.191258 C128.309399,42.2210061 128.185902,42.2355995 128.054761,42.2355995 C127.73014,42.2355995 127.47903,42.1508454 127.30143,41.980776 L127.207925,40.9300498 L124.820319,40.9300498 L124.820319,43.5967165 L127.30143,43.5080334 C127.31672,43.8251596 127.30143,44.1058023 127.254383,44.3488388 L124.820319,44.3488388 L124.820319,47.0822985 L127.347888,47.0822985 L127.602527,45.7318459 Z M117.237611,44.1389181 C117.802169,44.1389181 118.229115,43.9913001 118.519038,43.6955027 C118.808374,43.4008279 118.95363,43.0141023 118.95363,42.5342033 C118.95363,42.0251175 118.800729,41.6305339 118.495515,41.3504525 C118.190302,41.0698099 117.751594,40.9300498 117.17998,40.9300498 L116.588959,40.9300498 L116.588959,44.0833509 C116.781849,44.1203957 116.998263,44.1389181 117.237611,44.1389181 L117.237611,44.1389181 Z M121.585289,46.9386094 C121.669973,47.0710728 121.720548,47.2484389 121.736426,47.4695854 C121.642921,47.6093454 121.469437,47.7311443 121.214799,47.8344208 C120.958984,47.9376973 120.692583,47.9893356 120.414421,47.9893356 C120.089801,47.9893356 119.813403,47.9135621 119.585228,47.7625763 C119.357641,47.6110293 119.127702,47.3590121 118.895998,47.0048411 C118.601958,46.5698449 118.207944,45.879464 117.713368,44.935382 C117.627509,44.9426787 117.504012,44.9466077 117.34229,44.9466077 C117.118231,44.9466077 116.866533,44.9320143 116.588959,44.9022662 L116.588959,47.0379569 L117.504012,47.1373044 C117.512245,47.2849225 117.510481,47.415702 117.498719,47.5302042 C117.486958,47.6447064 117.46167,47.7608924 117.423445,47.8787624 L114.084325,47.8787624 C114.045512,47.6497579 114.030222,47.4695854 114.037867,47.3365607 C114.084325,47.2630323 114.19606,47.1945555 114.374248,47.1316916 C114.551849,47.0688276 114.745327,47.0340279 114.953508,47.0267312 L114.953508,40.9743914 L114.04904,40.8744826 C114.041983,40.7263032 114.043747,40.596085 114.055509,40.4815828 C114.067271,40.3670806 114.092558,40.2508945 114.130783,40.1330246 L117.34229,40.1330246 C118.424358,40.1330246 119.248846,40.3300358 119.81752,40.7246194 C120.385605,41.1197643 120.66906,41.6709465 120.66906,42.3792886 C120.66906,42.873781 120.543799,43.310461 120.292689,43.6904511 C120.041578,44.06988 119.680497,44.3673613 119.208857,44.581211 L119.428799,44.9241563 C119.908084,45.6470918 120.262108,46.1674034 120.489696,46.4845296 C120.717871,46.8016558 120.885474,46.9638673 120.994268,46.971164 L121.585289,46.9386094 Z M98.9777181,47.8787624 C98.9394928,47.6497579 98.9242028,47.4695854 98.9312597,47.3365607 C98.9777181,47.2630323 99.0994507,47.1945555 99.2964576,47.1316916 C99.4940526,47.0688276 99.7045853,47.0340279 99.9286439,47.0267312 L100.369704,40.9743914 L99.4181902,40.8744826 C99.4111332,40.7195678 99.4128975,40.5865432 99.424071,40.47597 C99.4358326,40.3653968 99.4652366,40.2508945 99.511695,40.1330246 L102.444451,40.1330246 L104.125185,45.0347295 C104.210457,45.2564372 104.27985,45.5067705 104.334542,45.7874132 L104.392173,45.7874132 L106.339895,40.1330246 L109.307937,40.1330246 C109.346162,40.3614678 109.36204,40.5422016 109.354395,40.6752263 C109.299704,40.7487546 109.174442,40.8172315 108.977436,40.8800954 C108.780429,40.9423981 108.565779,40.9777591 108.334076,40.9844945 L108.843941,47.0379569 L109.864261,47.1373044 C109.871906,47.2927805 109.870141,47.4252438 109.85838,47.535817 C109.847206,47.6469515 109.817802,47.7608924 109.771344,47.8787624 L106.351069,47.8787624 C106.312844,47.6497579 106.297554,47.4695854 106.305199,47.3365607 C106.351069,47.2630323 106.467509,47.1945555 106.652754,47.1316916 C106.838587,47.0688276 107.039123,47.0340279 107.256124,47.0267312 L106.896219,42.1575809 C106.889162,42.0032274 106.885046,41.7708553 106.885046,41.4610257 L106.815652,41.4610257 L104.786187,47.5027012 C104.492147,47.6278678 104.121656,47.6907318 103.673539,47.6907318 C103.526519,47.6907318 103.418312,47.6868028 103.348919,47.6795061 L101.494114,42.2019224 C101.424132,42.0032274 101.358267,41.7557006 101.297107,41.4610257 L101.227125,41.4610257 L100.844285,47.0379569 L101.794623,47.1373044 C101.802856,47.2927805 101.800504,47.4252438 101.789918,47.535817 C101.777568,47.6469515 101.744636,47.7608924 101.691121,47.8787624 L98.9777181,47.8787624 Z M94.0972396,44.1389181 C94.6617967,44.1389181 95.0881549,43.9913001 95.3780785,43.6955027 C95.667414,43.4008279 95.8132579,43.0141023 95.8132579,42.5342033 C95.8132579,42.0251175 95.6603571,41.6305339 95.3545553,41.3504525 C95.0499297,41.0698099 94.6112218,40.9300498 94.0390197,40.9300498 L93.447999,40.9300498 L93.447999,44.0833509 C93.6408893,44.1203957 93.8573029,44.1389181 94.0972396,44.1389181 L94.0972396,44.1389181 Z M98.4443292,46.9386094 C98.5296009,47.0710728 98.5801758,47.2484389 98.5954659,47.4695854 C98.5025492,47.6093454 98.3284774,47.7311443 98.0738386,47.8344208 C97.8186118,47.9376973 97.5522114,47.9893356 97.2734613,47.9893356 C96.948841,47.9893356 96.6724433,47.9135621 96.4448562,47.7625763 C96.216681,47.6110293 95.9867416,47.3590121 95.755038,47.0048411 C95.4609978,46.5698449 95.066984,45.879464 94.5724085,44.935382 C94.4877249,44.9426787 94.36364,44.9466077 94.2013298,44.9466077 C93.9772712,44.9466077 93.7261609,44.9320143 93.447999,44.9022662 L93.447999,47.0379569 L94.36364,47.1373044 C94.371285,47.2849225 94.3695208,47.415702 94.3577592,47.5302042 C94.3459976,47.6447064 94.3207101,47.7608924 94.2824849,47.8787624 L90.943365,47.8787624 C90.9051397,47.6497579 90.8892616,47.4695854 90.8969066,47.3365607 C90.943365,47.2630323 91.0556883,47.1945555 91.2332885,47.1316916 C91.4108888,47.0688276 91.6043672,47.0340279 91.8131357,47.0267312 L91.8131357,40.9743914 L90.9086682,40.8744826 C90.9010232,40.7263032 90.9033755,40.596085 90.914549,40.4815828 C90.9263106,40.3670806 90.9515981,40.2508945 90.9898233,40.1330246 L94.2013298,40.1330246 C95.2833976,40.1330246 96.1084743,40.3300358 96.6765598,40.7246194 C97.2446454,41.1197643 97.5292763,41.6709465 97.5292763,42.3792886 C97.5292763,42.873781 97.4034271,43.310461 97.1523168,43.6904511 C96.9006184,44.06988 96.5395371,44.3673613 96.0678967,44.581211 L96.2884268,44.9241563 C96.7677123,45.6470918 97.1211485,46.1674034 97.3493237,46.4845296 C97.5774989,46.8016558 97.7451017,46.9638673 97.8533085,46.971164 L98.4443292,46.9386094 Z M86.2363702,47.1154143 C86.8397406,47.1154143 87.3284353,46.884726 87.7036306,46.4239108 C88.0776496,45.9625342 88.2658353,45.2227601 88.2658353,44.2051498 C88.2658353,43.489511 88.1652736,42.8827615 87.9641501,42.3849014 C87.7630267,41.8870413 87.4925097,41.5143479 87.1525993,41.266821 C86.8121008,41.0204168 86.4298486,40.8963727 86.0046666,40.8963727 C85.4018843,40.8963727 84.9108372,41.1248158 84.5321135,41.5828247 C84.1533898,42.0397109 83.9640279,42.7817302 83.9640279,43.8066372 C83.9640279,44.522276 84.0663539,45.1290255 84.2715939,45.6268856 C84.4762459,46.125307 84.7502913,46.4974391 85.0949063,46.7444047 C85.4383452,46.9919315 85.8188332,47.1154143 86.2363702,47.1154143 L86.2363702,47.1154143 Z M85.8888147,48 C85.1548905,48 84.5091784,47.8434014 83.9528544,47.5302042 C83.3959423,47.2164457 82.9631152,46.76854 82.6543731,46.1859258 C82.3450428,45.6027503 82.1909658,44.9241563 82.1909658,44.1495825 C82.1909658,43.3087771 82.3779753,42.5746159 82.7531706,41.9476601 C83.1271896,41.3207044 83.6317625,40.8396829 84.2657131,40.503473 C84.8996637,40.1678243 85.5953627,40 86.3528101,40 C87.0873224,40 87.7342107,40.1571599 88.2940632,40.4703571 C88.8550918,40.7841156 89.2879189,41.2320213 89.5925445,41.8151968 C89.8983463,42.397811 90.0512471,43.076405 90.0512471,43.8509787 C90.0512471,44.6917842 89.8630614,45.4253841 89.4884543,46.0529011 C89.1138471,46.6798569 88.6098623,47.1608784 87.9753237,47.4970883 C87.3419612,47.832737 86.6462622,48 85.8888147,48 L85.8888147,48 Z M76.2889919,47.8787624 C76.2507667,47.6497579 76.2354766,47.4695854 76.2425335,47.3365607 C76.2889919,47.2630323 76.4036675,47.1945555 76.5847963,47.1316916 C76.7665131,47.0688276 76.9617557,47.0340279 77.1699362,47.0267312 L77.1699362,40.9300498 L75.674448,40.9300498 L75.5244875,42.3680629 C75.4080476,42.389953 75.2921958,42.40174 75.1763439,42.40174 C74.8517236,42.40174 74.6000252,42.3164246 74.4230131,42.1474777 C74.3989018,41.7338104 74.3883163,41.306111 74.3883163,40.8638181 C74.3883163,40.5382726 74.3918448,40.2952361 74.3989018,40.1330246 L81.5875954,40.1330246 C81.5723053,40.9665334 81.5411371,41.711359 81.4952668,42.3680629 C81.379415,42.389953 81.2629751,42.40174 81.1471233,42.40174 C80.8148579,42.40174 80.559631,42.3164246 80.3814427,42.1474777 L80.266179,40.9300498 L78.8053875,40.9300498 L78.8053875,47.0379569 L79.709855,47.1373044 C79.716912,47.2849225 79.7151477,47.415702 79.7039742,47.5302042 C79.6916245,47.6447064 79.6669251,47.7608924 79.6281118,47.8787624 L76.2889919,47.8787624 Z M70.5040459,48 C70.0865089,48 69.6425083,47.9539746 69.171456,47.8619238 C68.6992275,47.769873 68.3093302,47.6317968 68,47.4471339 C68.0929167,46.8942679 68.2087685,46.2701186 68.3475555,45.5769312 C68.3863688,45.5696345 68.4481172,45.5657055 68.5333888,45.5657055 C68.7186341,45.5657055 68.8968225,45.5915246 69.0667777,45.6437241 C69.2367329,45.6953624 69.3567013,45.765523 69.4255067,45.8536448 L69.391398,46.9823897 C69.5537082,47.0486213 69.7413058,47.1025047 69.9536028,47.1429173 C70.1658998,47.1833298 70.3805491,47.2035361 70.5975507,47.2035361 C71.0068546,47.2035361 71.346765,47.1092402 71.6172819,46.9217709 C71.8877989,46.7337403 72.0224693,46.4514137 72.0224693,46.0753526 C72.0224693,45.8093033 71.9436665,45.5847892 71.7854729,45.4001263 C71.6272793,45.2154634 71.4373294,45.0661615 71.2167993,44.9522206 C70.9968572,44.8377184 70.6393044,44.6698941 70.1447289,44.4481863 C69.7583601,44.2792395 69.4378563,44.1147829 69.1826295,43.9559391 C68.9274026,43.7970953 68.7133414,43.5832456 68.5392696,43.31439 C68.3651979,43.044973 68.278162,42.7115695 68.278162,42.3130569 C68.278162,41.8556093 68.395778,41.4514839 68.6315982,41.1012418 C68.8674184,40.7504385 69.2055646,40.479899 69.6460368,40.2879394 C70.0865089,40.0959798 70.6010792,40 71.1885714,40 C71.5361269,40 71.8919154,40.03929 72.254761,40.1167474 C72.6181946,40.1936434 72.9310533,40.3064618 73.1939252,40.4540798 C73.1551119,41.2286536 73.1127702,41.8112678 73.0663118,42.2019224 C72.958105,42.2170771 72.877538,42.2243738 72.8228466,42.2243738 C72.6528914,42.2243738 72.4882289,42.2002385 72.3300353,42.151968 C72.1718417,42.10482 72.049521,42.0363432 71.9648374,41.9476601 L71.8725088,40.8857083 C71.624927,40.826212 71.3544101,40.7964639 71.060958,40.7964639 C70.5975507,40.7964639 70.2588164,40.8946888 70.0459314,41.0900161 C69.8342225,41.2859047 69.7271919,41.5384831 69.7271919,41.8477514 C69.7271919,42.0913492 69.7877641,42.2945345 69.9071444,42.4561847 C70.0271128,42.6189574 70.1817779,42.7502982 70.3711398,42.8496457 C70.5599136,42.9489932 70.8216093,43.0651793 71.1538747,43.1982039 L71.3967518,43.2975514 C71.8760373,43.4968077 72.2682868,43.6926963 72.5735005,43.8840946 C72.8793023,44.0760542 73.1245318,44.311794 73.3097771,44.5924367 C73.4950224,44.8725181 73.5885271,45.2120957 73.5885271,45.6106083 C73.5885271,46.1269908 73.4526806,46.5642321 73.1821636,46.9217709 C72.9116467,47.2793096 72.5446846,47.5487266 72.0806892,47.7294605 C71.6172819,47.9101943 71.0915382,48 70.5040459,48 L70.5040459,48 Z" id="Fill-4" fill="#FEFEFE"></path>
                <g id="Group-8" transform="translate(12.000000, 7.000000)">
                    <mask id="mask-4" fill="white">
                        <use xlink:href="#path-3"></use>
                    </mask>
                    <g id="Clip-7"></g>
                    <path d="M6.84881159,32.7194703 C16.1601159,35.5473622 25.5125797,35.1923892 34.9369275,29.2660649 C31.4435942,36.3797946 26.3021449,40.9664973 19.9183768,44.0001189 C14.6337391,41.4891459 10.2006957,37.9120649 6.84881159,32.7194703 L6.84881159,32.7194703 Z M8.00533333,21.3240649 C10.1206957,21.7723892 11.6511304,22.2980108 14.0088116,22.4591459 C19.858087,22.8616865 26.605913,21.2057405 30.969971,17.8920649 C30.8331594,18.6929838 29.7914203,19.8215243 29.3862029,20.212173 C28.7009855,20.872173 28.0198261,21.3466595 27.0644638,21.8425514 C22.7948986,24.0592 14.8244638,24.7358486 10.4238841,22.9829838 C9.5577971,22.6375243 8.24185507,21.9299568 8.00533333,21.3240649 L8.00533333,21.3240649 Z M26.1218551,18.9284432 C21.8215652,20.4833081 9.52301449,23.0834703 5.60591304,18.8446054 C4.89518841,18.0746054 4.77171014,17.3373081 5.13344928,16.1290919 C5.37518841,16.5506595 5.29576812,16.7474703 5.68533333,17.1803351 C9.47837681,21.3983892 19.4667826,19.002173 23.8575072,18.0175243 C24.5676522,17.7350919 25.6192464,17.4948757 26.3792464,17.2350378 C27.9833043,16.6874162 31.8377971,15.0332541 32.6435942,13.6222811 C32.9583768,13.1781189 33.1235942,12.7470378 33.0696812,12.336173 C33.3462029,12.2927676 33.5641739,12.3831459 33.7502609,12.5252541 C34.1589565,12.9206595 34.1891014,13.3957405 33.9688116,13.9243351 C33.756058,14.5718486 32.9502609,15.3894162 32.5612754,15.7616324 C32.1508406,16.1552541 31.2609855,16.7094162 30.636058,17.0632 C29.5102609,17.7012 27.4934493,18.6067676 26.1218551,18.9284432 L26.1218551,18.9284432 Z M10.6117101,23.8772541 C10.6325797,23.8576324 10.6586667,23.7821189 10.6638841,23.8082811 C10.6691014,23.8350378 10.716058,23.7797405 10.7375072,23.7595243 C10.7630145,23.7363351 11.2667826,24.1341189 11.392,24.2013081 C11.6470725,24.3392541 11.885913,24.4403351 12.1809855,24.5586595 C12.7404058,24.7834162 13.2766377,24.9730919 13.885913,25.1294703 C16.4673623,25.7948216 19.3983768,25.6782811 21.9438841,24.9350378 C22.5334493,24.7632 23.0493913,24.5735243 23.6006957,24.3089297 C24.1693913,24.0372 24.6563478,23.6744973 25.089971,23.4687676 C25.9925797,26.4857405 20.7409855,27.0006595 18.2198261,26.9322811 C16.6505507,26.8894703 15.0743188,26.6694703 13.7108406,26.1581189 C13.0227246,25.8994703 12.5038841,25.6194162 11.9624348,25.2055784 C11.6702609,24.9826054 11.4395362,24.8696324 11.1873623,24.6252541 C11.0372174,24.4783892 10.7566377,23.8915243 10.6117101,23.8772541 L10.6117101,23.8772541 Z M12.2609855,26.3614703 C13.1311304,26.6974162 13.7206957,27.5001189 15.9757681,27.9466595 C17.734029,28.2944973 19.1033043,28.1827135 20.7815652,27.8301189 C20.4435942,29.1388216 17.6801159,29.5348216 15.9844638,29.2072 C14.3288116,28.8884973 12.6470725,27.7308216 12.2609855,26.3614703 L12.2609855,26.3614703 Z M13.2830145,30.8714703 L13.2673623,30.7971459 L13.1682319,30.6015243 L13.4070725,30.7947676 L13.6441739,30.9773081 C14.0801159,31.3739027 14.6215652,31.6212541 15.2331594,31.6141189 C15.7485217,31.6075784 15.5821449,31.4993622 15.8975072,31.696173 C15.5004058,31.850173 15.0777971,32.1908757 14.4789565,32.0184432 C13.9809855,31.8751459 13.765913,31.4577405 13.4204058,31.2145514 L13.2830145,30.8714703 Z M6.99257971,16.2777405 C6.48823188,15.7925514 6.52591304,15.2175784 6.89344928,14.5795784 C7.48823188,13.5473622 10.0430145,12.4717405 11.1821449,12.0103351 C13.3693913,11.1243892 15.8041739,10.4727135 18.1995362,9.9244973 C20.7722899,9.33584865 34.0876522,6.66374054 31.8986667,11.8248216 C31.4806957,11.2980108 31.6192464,11.1469838 30.8609855,10.8086595 C30.4151884,10.6094703 29.8273623,10.4810378 29.3102609,10.4090919 C23.9827246,9.67001081 14.1485217,12.1375784 9.28185507,14.4939568 C7.70504348,15.2568216 7.71431884,15.5582811 6.99257971,16.2777405 L6.99257971,16.2777405 Z M12.9821449,28.7208216 C14.0105507,29.9064432 15.4551884,30.3149297 17.1438841,30.2691459 C14.9050435,31.3322811 13.556058,30.7460108 12.9821449,28.7208216 L12.9821449,28.7208216 Z M0.31142029,12.1476865 C1.15547826,19.6806054 2.93518841,25.6699568 5.50910145,30.4499027 C14.378087,35.3136865 27.907942,33.0976324 36.0586667,26.7533081 C37.6992464,22.6999568 38.8708406,17.9176324 39.5131594,12.2618486 L19.9183768,0.602443243 L19.8163478,0.542389189 L0.31142029,12.1476865 Z" id="Fill-6" fill="#FEFEFE" mask="url(#mask-4)"></path>
                </g>
                <g id="Group-11">
                    <mask id="mask-6" fill="white">
                        <use xlink:href="#path-5"></use>
                    </mask>
                    <g id="Clip-10"></g>
                    <polygon id="Fill-9" fill="#FEFEFE" mask="url(#mask-6)" points="31.8141064 0.132109375 23.0807486 5.25498437 23.0807486 2.42517187 18.3846752 2.42517187 18.3846752 8.00998437 -0.000352293578 18.7948594 9.15751927 18.7948594 31.8141064 5.50376562 54.4712807 18.7948594 63.6285651 18.7948594"></polygon>
                </g>
                <path d="M52.9074108,19 C57.2531714,26.8066318 48.0947072,37.7770383 35,39 C40.1816177,35.5783218 45.3626553,32.1572379 50.5436929,28.7355598 C52.4665702,26.5457571 53.6208766,23.6416686 52.9074108,19" id="Fill-12" fill="#FEFEFE"></path>
                <path d="M11.0198023,31 C10.4208048,40.1924789 23.5163736,46.1222065 36,41.2573201 L34.1747639,41.026442 C28.5584265,41.7373515 22.9615065,40.8607459 17.3792967,38.9016331 C14.6791006,37.761254 12.3713714,35.6096414 11.0198023,31" id="Fill-14" fill="#FEFEFE"></path>
            </g>
        </g>
    </g>
</svg>